<mxfile host="app.diagrams.net" modified="2023-10-12T19:40:11.164Z" agent="Mozilla/5.0 (Windows NT 10.0; Win64; x64) AppleWebKit/537.36 (KHTML, like Gecko) Chrome/117.0.0.0 Safari/537.36" etag="OA3D50Temm9my5IAu9tQ" version="22.0.4" type="device">
  <diagram name="Pagina-1" id="Bu1kH5modBo4AFv9VPBv">
    <mxGraphModel dx="989" dy="1686" grid="1" gridSize="10" guides="1" tooltips="1" connect="1" arrows="1" fold="1" page="1" pageScale="1" pageWidth="827" pageHeight="1169" math="0" shadow="0">
      <root>
        <mxCell id="0" />
        <mxCell id="1" parent="0" />
        <mxCell id="PjZuuIiEIe1i-6Mp43BL-4" style="edgeStyle=orthogonalEdgeStyle;rounded=0;orthogonalLoop=1;jettySize=auto;html=1;entryX=0.5;entryY=0;entryDx=0;entryDy=0;" parent="1" source="PjZuuIiEIe1i-6Mp43BL-1" target="PjZuuIiEIe1i-6Mp43BL-5" edge="1">
          <mxGeometry relative="1" as="geometry">
            <mxPoint x="161" y="-120" as="targetPoint" />
          </mxGeometry>
        </mxCell>
        <mxCell id="PjZuuIiEIe1i-6Mp43BL-9" style="edgeStyle=orthogonalEdgeStyle;orthogonalLoop=1;jettySize=auto;html=1;curved=1;" parent="1" source="PjZuuIiEIe1i-6Mp43BL-1" edge="1">
          <mxGeometry relative="1" as="geometry">
            <mxPoint x="271" y="-180" as="targetPoint" />
          </mxGeometry>
        </mxCell>
        <mxCell id="PjZuuIiEIe1i-6Mp43BL-1" value="3" style="ellipse;whiteSpace=wrap;html=1;aspect=fixed;" parent="1" vertex="1">
          <mxGeometry x="141" y="-200" width="40" height="40" as="geometry" />
        </mxCell>
        <mxCell id="PjZuuIiEIe1i-6Mp43BL-2" value="" style="endArrow=classic;html=1;rounded=0;" parent="1" edge="1">
          <mxGeometry width="50" height="50" relative="1" as="geometry">
            <mxPoint x="91" y="-180" as="sourcePoint" />
            <mxPoint x="141" y="-180" as="targetPoint" />
          </mxGeometry>
        </mxCell>
        <mxCell id="PjZuuIiEIe1i-6Mp43BL-3" value="Start" style="text;html=1;strokeColor=none;fillColor=none;align=center;verticalAlign=middle;whiteSpace=wrap;rounded=0;fontSize=15;" parent="1" vertex="1">
          <mxGeometry x="91" y="-200" width="40" height="20" as="geometry" />
        </mxCell>
        <mxCell id="PjZuuIiEIe1i-6Mp43BL-5" value="" style="ellipse;whiteSpace=wrap;html=1;aspect=fixed;" parent="1" vertex="1">
          <mxGeometry x="141" y="-100" width="40" height="40" as="geometry" />
        </mxCell>
        <mxCell id="PjZuuIiEIe1i-6Mp43BL-6" value="ERR" style="ellipse;whiteSpace=wrap;html=1;aspect=fixed;" parent="1" vertex="1">
          <mxGeometry x="146" y="-95" width="30" height="30" as="geometry" />
        </mxCell>
        <mxCell id="PjZuuIiEIe1i-6Mp43BL-7" value="&lt;font style=&quot;font-size: 15px;&quot;&gt;Return (ERR)&lt;/font&gt;" style="text;html=1;strokeColor=none;fillColor=none;align=center;verticalAlign=middle;whiteSpace=wrap;rounded=0;fontSize=15;" parent="1" vertex="1">
          <mxGeometry x="114.75" y="-60" width="92.5" height="25" as="geometry" />
        </mxCell>
        <mxCell id="PjZuuIiEIe1i-6Mp43BL-8" value="other" style="text;html=1;strokeColor=none;fillColor=none;align=center;verticalAlign=middle;whiteSpace=wrap;rounded=0;fontSize=15;" parent="1" vertex="1">
          <mxGeometry x="121" y="-140" width="45" height="20" as="geometry" />
        </mxCell>
        <mxCell id="PjZuuIiEIe1i-6Mp43BL-10" value="4" style="ellipse;whiteSpace=wrap;html=1;aspect=fixed;" parent="1" vertex="1">
          <mxGeometry x="271" y="-200" width="40" height="40" as="geometry" />
        </mxCell>
        <mxCell id="PjZuuIiEIe1i-6Mp43BL-11" value="letter" style="text;html=1;strokeColor=none;fillColor=none;align=center;verticalAlign=middle;whiteSpace=wrap;rounded=0;fontSize=15;" parent="1" vertex="1">
          <mxGeometry x="201" y="-200" width="45" height="20" as="geometry" />
        </mxCell>
        <mxCell id="PjZuuIiEIe1i-6Mp43BL-22" style="edgeStyle=orthogonalEdgeStyle;shape=connector;curved=1;rounded=1;orthogonalLoop=1;jettySize=auto;html=1;labelBackgroundColor=default;strokeColor=default;align=center;verticalAlign=middle;fontFamily=Helvetica;fontSize=11;fontColor=default;endArrow=classic;" parent="1" edge="1">
          <mxGeometry relative="1" as="geometry">
            <mxPoint x="291" y="-100" as="targetPoint" />
            <mxPoint x="291" y="-160" as="sourcePoint" />
          </mxGeometry>
        </mxCell>
        <mxCell id="PjZuuIiEIe1i-6Mp43BL-17" value="letter_,digit" style="text;html=1;strokeColor=none;fillColor=none;align=center;verticalAlign=middle;whiteSpace=wrap;rounded=0;fontSize=15;fontFamily=Helvetica;fontColor=default;" parent="1" vertex="1">
          <mxGeometry x="282" y="-250" width="60" height="30" as="geometry" />
        </mxCell>
        <mxCell id="PjZuuIiEIe1i-6Mp43BL-23" value="" style="ellipse;whiteSpace=wrap;html=1;aspect=fixed;" parent="1" vertex="1">
          <mxGeometry x="271" y="-100" width="40" height="40" as="geometry" />
        </mxCell>
        <mxCell id="PjZuuIiEIe1i-6Mp43BL-24" value="ID" style="ellipse;whiteSpace=wrap;html=1;aspect=fixed;" parent="1" vertex="1">
          <mxGeometry x="276" y="-95" width="30" height="30" as="geometry" />
        </mxCell>
        <mxCell id="PjZuuIiEIe1i-6Mp43BL-25" value="&lt;font style=&quot;font-size: 15px;&quot;&gt;Return (ID, pointer)&lt;/font&gt;" style="text;html=1;strokeColor=none;fillColor=none;align=center;verticalAlign=middle;whiteSpace=wrap;rounded=0;fontSize=15;" parent="1" vertex="1">
          <mxGeometry x="233.5" y="-60" width="137.5" height="25" as="geometry" />
        </mxCell>
        <mxCell id="PjZuuIiEIe1i-6Mp43BL-26" value="other" style="text;html=1;strokeColor=none;fillColor=none;align=center;verticalAlign=middle;whiteSpace=wrap;rounded=0;fontSize=15;" parent="1" vertex="1">
          <mxGeometry x="246" y="-140" width="45" height="20" as="geometry" />
        </mxCell>
        <mxCell id="PjZuuIiEIe1i-6Mp43BL-34" value="&lt;font style=&quot;font-size: 30px;&quot;&gt;*&lt;/font&gt;" style="text;html=1;strokeColor=none;fillColor=none;align=center;verticalAlign=middle;whiteSpace=wrap;rounded=0;" parent="1" vertex="1">
          <mxGeometry x="297" y="-100" width="45" height="20" as="geometry" />
        </mxCell>
        <mxCell id="PjZuuIiEIe1i-6Mp43BL-44" style="edgeStyle=orthogonalEdgeStyle;shape=connector;curved=1;rounded=1;orthogonalLoop=1;jettySize=auto;html=1;entryX=1;entryY=0.5;entryDx=0;entryDy=0;labelBackgroundColor=default;strokeColor=default;align=center;verticalAlign=middle;fontFamily=Helvetica;fontSize=11;fontColor=default;endArrow=classic;" parent="1" source="PjZuuIiEIe1i-6Mp43BL-10" target="PjZuuIiEIe1i-6Mp43BL-10" edge="1">
          <mxGeometry relative="1" as="geometry" />
        </mxCell>
        <mxCell id="PjZuuIiEIe1i-6Mp43BL-59" style="edgeStyle=orthogonalEdgeStyle;shape=connector;rounded=0;orthogonalLoop=1;jettySize=auto;html=1;labelBackgroundColor=default;strokeColor=default;align=center;verticalAlign=middle;fontFamily=Helvetica;fontSize=11;fontColor=default;endArrow=classic;entryX=0.5;entryY=0;entryDx=0;entryDy=0;" parent="1" source="PjZuuIiEIe1i-6Mp43BL-45" target="PjZuuIiEIe1i-6Mp43BL-51" edge="1">
          <mxGeometry relative="1" as="geometry">
            <mxPoint x="158.38" y="555" as="targetPoint" />
          </mxGeometry>
        </mxCell>
        <mxCell id="PjZuuIiEIe1i-6Mp43BL-73" style="edgeStyle=orthogonalEdgeStyle;shape=connector;curved=1;rounded=1;orthogonalLoop=1;jettySize=auto;html=1;entryX=0;entryY=0.5;entryDx=0;entryDy=0;labelBackgroundColor=default;strokeColor=default;align=center;verticalAlign=middle;fontFamily=Helvetica;fontSize=11;fontColor=default;endArrow=classic;exitX=1;exitY=0.5;exitDx=0;exitDy=0;" parent="1" source="PjZuuIiEIe1i-6Mp43BL-45" target="PjZuuIiEIe1i-6Mp43BL-72" edge="1">
          <mxGeometry relative="1" as="geometry">
            <mxPoint x="333.38" y="485" as="sourcePoint" />
          </mxGeometry>
        </mxCell>
        <mxCell id="PjZuuIiEIe1i-6Mp43BL-45" value="12" style="ellipse;whiteSpace=wrap;html=1;aspect=fixed;" parent="1" vertex="1">
          <mxGeometry x="138.38" y="465" width="40" height="40" as="geometry" />
        </mxCell>
        <mxCell id="PjZuuIiEIe1i-6Mp43BL-46" value="" style="endArrow=classic;html=1;rounded=0;" parent="1" edge="1">
          <mxGeometry width="50" height="50" relative="1" as="geometry">
            <mxPoint x="88.38" y="485" as="sourcePoint" />
            <mxPoint x="138.38" y="485" as="targetPoint" />
          </mxGeometry>
        </mxCell>
        <mxCell id="PjZuuIiEIe1i-6Mp43BL-47" value="Start" style="text;html=1;strokeColor=none;fillColor=none;align=center;verticalAlign=middle;whiteSpace=wrap;rounded=0;fontSize=15;" parent="1" vertex="1">
          <mxGeometry x="88.38" y="465" width="40" height="20" as="geometry" />
        </mxCell>
        <mxCell id="PjZuuIiEIe1i-6Mp43BL-48" value="&lt;b style=&quot;font-size: 15px;&quot;&gt;&lt;i style=&quot;font-size: 15px;&quot;&gt;INUMBER&lt;/i&gt;&lt;/b&gt;" style="text;html=1;strokeColor=none;fillColor=none;align=center;verticalAlign=middle;whiteSpace=wrap;rounded=0;fontSize=15;fontFamily=Helvetica;fontColor=default;" parent="1" vertex="1">
          <mxGeometry x="9.999999999999993" y="470" width="60" height="30" as="geometry" />
        </mxCell>
        <mxCell id="PjZuuIiEIe1i-6Mp43BL-49" value="ID" style="text;html=1;strokeColor=none;fillColor=none;align=center;verticalAlign=middle;whiteSpace=wrap;rounded=0;fontSize=15;fontFamily=Helvetica;fontColor=default;fontStyle=3" parent="1" vertex="1">
          <mxGeometry x="31" y="-220" width="60" height="30" as="geometry" />
        </mxCell>
        <mxCell id="PjZuuIiEIe1i-6Mp43BL-51" value="" style="ellipse;whiteSpace=wrap;html=1;aspect=fixed;" parent="1" vertex="1">
          <mxGeometry x="138.38" y="565" width="40" height="40" as="geometry" />
        </mxCell>
        <mxCell id="PjZuuIiEIe1i-6Mp43BL-52" value="ERR" style="ellipse;whiteSpace=wrap;html=1;aspect=fixed;" parent="1" vertex="1">
          <mxGeometry x="143.38" y="570" width="30" height="30" as="geometry" />
        </mxCell>
        <mxCell id="PjZuuIiEIe1i-6Mp43BL-54" value="other" style="text;html=1;strokeColor=none;fillColor=none;align=center;verticalAlign=middle;whiteSpace=wrap;rounded=0;fontSize=15;" parent="1" vertex="1">
          <mxGeometry x="113.38" y="525" width="45" height="20" as="geometry" />
        </mxCell>
        <mxCell id="PjZuuIiEIe1i-6Mp43BL-72" value="13" style="ellipse;whiteSpace=wrap;html=1;aspect=fixed;" parent="1" vertex="1">
          <mxGeometry x="335.01" y="465" width="40" height="40" as="geometry" />
        </mxCell>
        <mxCell id="PjZuuIiEIe1i-6Mp43BL-79" value="&lt;font style=&quot;font-size: 15px;&quot;&gt;[1-9]&lt;/font&gt;" style="text;html=1;strokeColor=none;fillColor=none;align=center;verticalAlign=middle;whiteSpace=wrap;rounded=0;fontSize=15;fontFamily=Helvetica;fontColor=default;" parent="1" vertex="1">
          <mxGeometry x="243.38" y="460" width="45" height="25" as="geometry" />
        </mxCell>
        <mxCell id="PjZuuIiEIe1i-6Mp43BL-83" style="edgeStyle=orthogonalEdgeStyle;shape=connector;curved=1;rounded=1;orthogonalLoop=1;jettySize=auto;html=1;labelBackgroundColor=default;strokeColor=default;align=center;verticalAlign=middle;fontFamily=Helvetica;fontSize=11;fontColor=default;endArrow=classic;" parent="1" source="PjZuuIiEIe1i-6Mp43BL-72" target="PjZuuIiEIe1i-6Mp43BL-72" edge="1">
          <mxGeometry relative="1" as="geometry" />
        </mxCell>
        <mxCell id="PjZuuIiEIe1i-6Mp43BL-84" value="digit &amp;lt;[0-9]&amp;gt;" style="text;html=1;strokeColor=none;fillColor=none;align=center;verticalAlign=middle;whiteSpace=wrap;rounded=0;fontSize=15;fontFamily=Helvetica;fontColor=default;" parent="1" vertex="1">
          <mxGeometry x="386.51" y="470" width="115" height="30" as="geometry" />
        </mxCell>
        <mxCell id="PjZuuIiEIe1i-6Mp43BL-86" style="edgeStyle=orthogonalEdgeStyle;shape=connector;curved=1;rounded=1;orthogonalLoop=1;jettySize=auto;html=1;labelBackgroundColor=default;strokeColor=default;align=center;verticalAlign=middle;fontFamily=Helvetica;fontSize=11;fontColor=default;endArrow=classic;" parent="1" edge="1">
          <mxGeometry relative="1" as="geometry">
            <mxPoint x="356.51" y="565" as="targetPoint" />
            <mxPoint x="356.51" y="505" as="sourcePoint" />
          </mxGeometry>
        </mxCell>
        <mxCell id="PjZuuIiEIe1i-6Mp43BL-87" value="" style="ellipse;whiteSpace=wrap;html=1;aspect=fixed;" parent="1" vertex="1">
          <mxGeometry x="336.51" y="565" width="40" height="40" as="geometry" />
        </mxCell>
        <mxCell id="PjZuuIiEIe1i-6Mp43BL-88" value="&lt;font style=&quot;font-size: 10px;&quot;&gt;INUMBER&lt;/font&gt;" style="ellipse;whiteSpace=wrap;html=1;aspect=fixed;" parent="1" vertex="1">
          <mxGeometry x="341.51" y="570" width="30" height="30" as="geometry" />
        </mxCell>
        <mxCell id="PjZuuIiEIe1i-6Mp43BL-89" value="&lt;font style=&quot;font-size: 13px;&quot;&gt;Return (INUMBER, pointer)&lt;/font&gt;" style="text;html=1;strokeColor=none;fillColor=none;align=center;verticalAlign=middle;whiteSpace=wrap;rounded=0;fontSize=13;" parent="1" vertex="1">
          <mxGeometry x="287.76" y="595" width="171.87" height="45" as="geometry" />
        </mxCell>
        <mxCell id="PjZuuIiEIe1i-6Mp43BL-91" value="&lt;font style=&quot;font-size: 30px;&quot;&gt;*&lt;/font&gt;" style="text;html=1;strokeColor=none;fillColor=none;align=center;verticalAlign=middle;whiteSpace=wrap;rounded=0;" parent="1" vertex="1">
          <mxGeometry x="362.51" y="565" width="45" height="20" as="geometry" />
        </mxCell>
        <mxCell id="PjZuuIiEIe1i-6Mp43BL-113" value="other" style="text;html=1;strokeColor=none;fillColor=none;align=center;verticalAlign=middle;whiteSpace=wrap;rounded=0;fontSize=15;" parent="1" vertex="1">
          <mxGeometry x="362.51" y="525" width="45" height="20" as="geometry" />
        </mxCell>
        <mxCell id="PjZuuIiEIe1i-6Mp43BL-218" value="&lt;font style=&quot;font-size: 13px;&quot;&gt;Return (ERR)&lt;/font&gt;" style="text;html=1;strokeColor=none;fillColor=none;align=center;verticalAlign=middle;whiteSpace=wrap;rounded=0;fontSize=13;" parent="1" vertex="1">
          <mxGeometry x="40.88000000000001" y="575" width="87.5" height="30" as="geometry" />
        </mxCell>
        <mxCell id="RC1J0I_5zovOuxV37Q9L-21" style="edgeStyle=orthogonalEdgeStyle;orthogonalLoop=1;jettySize=auto;html=1;curved=1;" parent="1" source="RC1J0I_5zovOuxV37Q9L-22" edge="1">
          <mxGeometry relative="1" as="geometry">
            <mxPoint x="272.5" y="-390" as="targetPoint" />
          </mxGeometry>
        </mxCell>
        <mxCell id="RC1J0I_5zovOuxV37Q9L-22" value="0" style="ellipse;whiteSpace=wrap;html=1;aspect=fixed;" parent="1" vertex="1">
          <mxGeometry x="142.5" y="-410" width="40" height="40" as="geometry" />
        </mxCell>
        <mxCell id="RC1J0I_5zovOuxV37Q9L-23" value="" style="endArrow=classic;html=1;rounded=0;" parent="1" edge="1">
          <mxGeometry width="50" height="50" relative="1" as="geometry">
            <mxPoint x="92.5" y="-390" as="sourcePoint" />
            <mxPoint x="142.5" y="-390" as="targetPoint" />
          </mxGeometry>
        </mxCell>
        <mxCell id="RC1J0I_5zovOuxV37Q9L-24" value="Start" style="text;html=1;strokeColor=none;fillColor=none;align=center;verticalAlign=middle;whiteSpace=wrap;rounded=0;fontSize=15;" parent="1" vertex="1">
          <mxGeometry x="92.5" y="-410" width="40" height="20" as="geometry" />
        </mxCell>
        <mxCell id="RC1J0I_5zovOuxV37Q9L-35" style="edgeStyle=orthogonalEdgeStyle;shape=connector;curved=1;rounded=1;orthogonalLoop=1;jettySize=auto;html=1;entryX=0.5;entryY=1;entryDx=0;entryDy=0;labelBackgroundColor=default;strokeColor=default;align=center;verticalAlign=middle;fontFamily=Helvetica;fontSize=11;fontColor=default;endArrow=classic;" parent="1" source="RC1J0I_5zovOuxV37Q9L-25" target="RC1J0I_5zovOuxV37Q9L-31" edge="1">
          <mxGeometry relative="1" as="geometry">
            <Array as="points">
              <mxPoint x="293" y="-350" />
              <mxPoint x="415" y="-350" />
            </Array>
          </mxGeometry>
        </mxCell>
        <mxCell id="RC1J0I_5zovOuxV37Q9L-25" value="1" style="ellipse;whiteSpace=wrap;html=1;aspect=fixed;" parent="1" vertex="1">
          <mxGeometry x="272.5" y="-410" width="40" height="40" as="geometry" />
        </mxCell>
        <mxCell id="RC1J0I_5zovOuxV37Q9L-26" value="ws" style="text;html=1;strokeColor=none;fillColor=none;align=center;verticalAlign=middle;whiteSpace=wrap;rounded=0;fontSize=15;" parent="1" vertex="1">
          <mxGeometry x="202.5" y="-410" width="45" height="20" as="geometry" />
        </mxCell>
        <mxCell id="RC1J0I_5zovOuxV37Q9L-27" value="ws" style="text;html=1;strokeColor=none;fillColor=none;align=center;verticalAlign=middle;whiteSpace=wrap;rounded=0;fontSize=15;fontFamily=Helvetica;fontColor=default;" parent="1" vertex="1">
          <mxGeometry x="289.5" y="-470" width="60" height="30" as="geometry" />
        </mxCell>
        <mxCell id="RC1J0I_5zovOuxV37Q9L-28" style="edgeStyle=orthogonalEdgeStyle;shape=connector;curved=1;rounded=1;orthogonalLoop=1;jettySize=auto;html=1;entryX=1;entryY=0.5;entryDx=0;entryDy=0;labelBackgroundColor=default;strokeColor=default;align=center;verticalAlign=middle;fontFamily=Helvetica;fontSize=11;fontColor=default;endArrow=classic;" parent="1" source="RC1J0I_5zovOuxV37Q9L-25" target="RC1J0I_5zovOuxV37Q9L-25" edge="1">
          <mxGeometry relative="1" as="geometry" />
        </mxCell>
        <mxCell id="RC1J0I_5zovOuxV37Q9L-29" value="DELIMITATORI" style="text;html=1;strokeColor=none;fillColor=none;align=center;verticalAlign=middle;whiteSpace=wrap;rounded=0;fontSize=15;fontFamily=Helvetica;fontColor=default;fontStyle=3" parent="1" vertex="1">
          <mxGeometry x="54.75" y="-450" width="60" height="30" as="geometry" />
        </mxCell>
        <mxCell id="RC1J0I_5zovOuxV37Q9L-31" value="" style="ellipse;whiteSpace=wrap;html=1;aspect=fixed;" parent="1" vertex="1">
          <mxGeometry x="395" y="-410" width="40" height="40" as="geometry" />
        </mxCell>
        <mxCell id="RC1J0I_5zovOuxV37Q9L-32" value="2" style="ellipse;whiteSpace=wrap;html=1;aspect=fixed;" parent="1" vertex="1">
          <mxGeometry x="400" y="-405" width="30" height="30" as="geometry" />
        </mxCell>
        <mxCell id="RC1J0I_5zovOuxV37Q9L-33" value="&lt;font style=&quot;font-size: 30px;&quot;&gt;*&lt;/font&gt;" style="text;html=1;strokeColor=none;fillColor=none;align=center;verticalAlign=middle;whiteSpace=wrap;rounded=0;" parent="1" vertex="1">
          <mxGeometry x="435" y="-410" width="26" height="20" as="geometry" />
        </mxCell>
        <mxCell id="RC1J0I_5zovOuxV37Q9L-36" value="other" style="text;html=1;strokeColor=none;fillColor=none;align=center;verticalAlign=middle;whiteSpace=wrap;rounded=0;fontSize=15;" parent="1" vertex="1">
          <mxGeometry x="334.5" y="-340" width="45" height="20" as="geometry" />
        </mxCell>
        <mxCell id="RC1J0I_5zovOuxV37Q9L-79" style="edgeStyle=orthogonalEdgeStyle;shape=connector;curved=1;rounded=1;orthogonalLoop=1;jettySize=auto;html=1;entryX=0;entryY=0.5;entryDx=0;entryDy=0;labelBackgroundColor=default;strokeColor=default;align=center;verticalAlign=middle;fontFamily=Helvetica;fontSize=11;fontColor=default;endArrow=classic;" parent="1" source="RC1J0I_5zovOuxV37Q9L-38" target="RC1J0I_5zovOuxV37Q9L-77" edge="1">
          <mxGeometry relative="1" as="geometry">
            <Array as="points">
              <mxPoint x="190" y="160" />
              <mxPoint x="190" y="35" />
            </Array>
          </mxGeometry>
        </mxCell>
        <mxCell id="RC1J0I_5zovOuxV37Q9L-80" style="edgeStyle=orthogonalEdgeStyle;shape=connector;curved=1;rounded=1;orthogonalLoop=1;jettySize=auto;html=1;labelBackgroundColor=default;strokeColor=default;align=center;verticalAlign=middle;fontFamily=Helvetica;fontSize=11;fontColor=default;endArrow=classic;entryX=0;entryY=0.5;entryDx=0;entryDy=0;" parent="1" source="RC1J0I_5zovOuxV37Q9L-38" target="RC1J0I_5zovOuxV37Q9L-75" edge="1">
          <mxGeometry relative="1" as="geometry">
            <mxPoint x="330" y="80" as="targetPoint" />
            <Array as="points">
              <mxPoint x="230" y="160" />
              <mxPoint x="230" y="80" />
            </Array>
          </mxGeometry>
        </mxCell>
        <mxCell id="RC1J0I_5zovOuxV37Q9L-81" style="edgeStyle=orthogonalEdgeStyle;shape=connector;curved=1;rounded=1;orthogonalLoop=1;jettySize=auto;html=1;entryX=0;entryY=0.5;entryDx=0;entryDy=0;labelBackgroundColor=default;strokeColor=default;align=center;verticalAlign=middle;fontFamily=Helvetica;fontSize=11;fontColor=default;endArrow=classic;" parent="1" source="RC1J0I_5zovOuxV37Q9L-38" target="RC1J0I_5zovOuxV37Q9L-73" edge="1">
          <mxGeometry relative="1" as="geometry" />
        </mxCell>
        <mxCell id="RC1J0I_5zovOuxV37Q9L-82" style="edgeStyle=orthogonalEdgeStyle;shape=connector;curved=1;rounded=1;orthogonalLoop=1;jettySize=auto;html=1;entryX=0;entryY=0.5;entryDx=0;entryDy=0;labelBackgroundColor=default;strokeColor=default;align=center;verticalAlign=middle;fontFamily=Helvetica;fontSize=11;fontColor=default;endArrow=classic;" parent="1" source="RC1J0I_5zovOuxV37Q9L-38" target="RC1J0I_5zovOuxV37Q9L-71" edge="1">
          <mxGeometry relative="1" as="geometry" />
        </mxCell>
        <mxCell id="RC1J0I_5zovOuxV37Q9L-83" style="edgeStyle=orthogonalEdgeStyle;shape=connector;curved=1;rounded=1;orthogonalLoop=1;jettySize=auto;html=1;entryX=0;entryY=0.5;entryDx=0;entryDy=0;labelBackgroundColor=default;strokeColor=default;align=center;verticalAlign=middle;fontFamily=Helvetica;fontSize=11;fontColor=default;endArrow=classic;" parent="1" source="RC1J0I_5zovOuxV37Q9L-38" target="RC1J0I_5zovOuxV37Q9L-69" edge="1">
          <mxGeometry relative="1" as="geometry">
            <Array as="points">
              <mxPoint x="230" y="160" />
              <mxPoint x="230" y="240" />
            </Array>
          </mxGeometry>
        </mxCell>
        <mxCell id="RC1J0I_5zovOuxV37Q9L-84" style="edgeStyle=orthogonalEdgeStyle;shape=connector;curved=1;rounded=1;orthogonalLoop=1;jettySize=auto;html=1;entryX=0;entryY=0.5;entryDx=0;entryDy=0;labelBackgroundColor=default;strokeColor=default;align=center;verticalAlign=middle;fontFamily=Helvetica;fontSize=11;fontColor=default;endArrow=classic;" parent="1" source="RC1J0I_5zovOuxV37Q9L-38" target="RC1J0I_5zovOuxV37Q9L-66" edge="1">
          <mxGeometry relative="1" as="geometry">
            <Array as="points">
              <mxPoint x="190" y="160" />
              <mxPoint x="190" y="285" />
            </Array>
          </mxGeometry>
        </mxCell>
        <mxCell id="RC1J0I_5zovOuxV37Q9L-38" value="5" style="ellipse;whiteSpace=wrap;html=1;aspect=fixed;" parent="1" vertex="1">
          <mxGeometry x="140.25" y="140" width="40" height="40" as="geometry" />
        </mxCell>
        <mxCell id="RC1J0I_5zovOuxV37Q9L-39" value="" style="endArrow=classic;html=1;rounded=0;" parent="1" edge="1">
          <mxGeometry width="50" height="50" relative="1" as="geometry">
            <mxPoint x="90.25" y="160" as="sourcePoint" />
            <mxPoint x="140.25" y="160" as="targetPoint" />
          </mxGeometry>
        </mxCell>
        <mxCell id="RC1J0I_5zovOuxV37Q9L-40" value="Start" style="text;html=1;strokeColor=none;fillColor=none;align=center;verticalAlign=middle;whiteSpace=wrap;rounded=0;fontSize=15;" parent="1" vertex="1">
          <mxGeometry x="90.25" y="140" width="40" height="20" as="geometry" />
        </mxCell>
        <mxCell id="RC1J0I_5zovOuxV37Q9L-46" value="SEPARATORI" style="text;html=1;strokeColor=none;fillColor=none;align=center;verticalAlign=middle;whiteSpace=wrap;rounded=0;fontSize=15;fontFamily=Helvetica;fontColor=default;fontStyle=3" parent="1" vertex="1">
          <mxGeometry x="62.37" y="70" width="60" height="30" as="geometry" />
        </mxCell>
        <mxCell id="RC1J0I_5zovOuxV37Q9L-51" style="edgeStyle=orthogonalEdgeStyle;rounded=0;orthogonalLoop=1;jettySize=auto;html=1;entryX=0.5;entryY=0;entryDx=0;entryDy=0;" parent="1" target="RC1J0I_5zovOuxV37Q9L-52" edge="1">
          <mxGeometry relative="1" as="geometry">
            <mxPoint x="160.25" y="220" as="targetPoint" />
            <mxPoint x="160.25" y="180" as="sourcePoint" />
          </mxGeometry>
        </mxCell>
        <mxCell id="RC1J0I_5zovOuxV37Q9L-52" value="" style="ellipse;whiteSpace=wrap;html=1;aspect=fixed;" parent="1" vertex="1">
          <mxGeometry x="140.25" y="240" width="40" height="40" as="geometry" />
        </mxCell>
        <mxCell id="RC1J0I_5zovOuxV37Q9L-53" value="ERR" style="ellipse;whiteSpace=wrap;html=1;aspect=fixed;" parent="1" vertex="1">
          <mxGeometry x="145.25" y="245" width="30" height="30" as="geometry" />
        </mxCell>
        <mxCell id="RC1J0I_5zovOuxV37Q9L-54" value="&lt;font style=&quot;font-size: 15px;&quot;&gt;Return (ERR)&lt;/font&gt;" style="text;html=1;strokeColor=none;fillColor=none;align=center;verticalAlign=middle;whiteSpace=wrap;rounded=0;fontSize=15;" parent="1" vertex="1">
          <mxGeometry x="114" y="280" width="92.5" height="25" as="geometry" />
        </mxCell>
        <mxCell id="RC1J0I_5zovOuxV37Q9L-55" value="other" style="text;html=1;strokeColor=none;fillColor=none;align=center;verticalAlign=middle;whiteSpace=wrap;rounded=0;fontSize=15;" parent="1" vertex="1">
          <mxGeometry x="120.25" y="200" width="45" height="20" as="geometry" />
        </mxCell>
        <mxCell id="RC1J0I_5zovOuxV37Q9L-66" value="" style="ellipse;whiteSpace=wrap;html=1;aspect=fixed;" parent="1" vertex="1">
          <mxGeometry x="337" y="265" width="40" height="40" as="geometry" />
        </mxCell>
        <mxCell id="RC1J0I_5zovOuxV37Q9L-67" value="SEMI" style="ellipse;whiteSpace=wrap;html=1;aspect=fixed;" parent="1" vertex="1">
          <mxGeometry x="342" y="270" width="30" height="30" as="geometry" />
        </mxCell>
        <mxCell id="RC1J0I_5zovOuxV37Q9L-69" value="" style="ellipse;whiteSpace=wrap;html=1;aspect=fixed;" parent="1" vertex="1">
          <mxGeometry x="337" y="220" width="40" height="40" as="geometry" />
        </mxCell>
        <mxCell id="RC1J0I_5zovOuxV37Q9L-70" value="COM" style="ellipse;whiteSpace=wrap;html=1;aspect=fixed;" parent="1" vertex="1">
          <mxGeometry x="342" y="225" width="30" height="30" as="geometry" />
        </mxCell>
        <mxCell id="RC1J0I_5zovOuxV37Q9L-71" value="" style="ellipse;whiteSpace=wrap;html=1;aspect=fixed;" parent="1" vertex="1">
          <mxGeometry x="337" y="165" width="40" height="40" as="geometry" />
        </mxCell>
        <mxCell id="RC1J0I_5zovOuxV37Q9L-72" value="RCUR" style="ellipse;whiteSpace=wrap;html=1;aspect=fixed;" parent="1" vertex="1">
          <mxGeometry x="342" y="170" width="30" height="30" as="geometry" />
        </mxCell>
        <mxCell id="RC1J0I_5zovOuxV37Q9L-73" value="" style="ellipse;whiteSpace=wrap;html=1;aspect=fixed;" parent="1" vertex="1">
          <mxGeometry x="337" y="120" width="40" height="40" as="geometry" />
        </mxCell>
        <mxCell id="RC1J0I_5zovOuxV37Q9L-74" value="LCUR" style="ellipse;whiteSpace=wrap;html=1;aspect=fixed;" parent="1" vertex="1">
          <mxGeometry x="342" y="125" width="30" height="30" as="geometry" />
        </mxCell>
        <mxCell id="RC1J0I_5zovOuxV37Q9L-75" value="" style="ellipse;whiteSpace=wrap;html=1;aspect=fixed;" parent="1" vertex="1">
          <mxGeometry x="334.5" y="60" width="40" height="40" as="geometry" />
        </mxCell>
        <mxCell id="RC1J0I_5zovOuxV37Q9L-76" value="RPAR" style="ellipse;whiteSpace=wrap;html=1;aspect=fixed;" parent="1" vertex="1">
          <mxGeometry x="339.5" y="65" width="30" height="30" as="geometry" />
        </mxCell>
        <mxCell id="RC1J0I_5zovOuxV37Q9L-77" value="" style="ellipse;whiteSpace=wrap;html=1;aspect=fixed;" parent="1" vertex="1">
          <mxGeometry x="334.5" y="15" width="40" height="40" as="geometry" />
        </mxCell>
        <mxCell id="RC1J0I_5zovOuxV37Q9L-78" value="LPAR" style="ellipse;whiteSpace=wrap;html=1;aspect=fixed;" parent="1" vertex="1">
          <mxGeometry x="339.5" y="20" width="30" height="30" as="geometry" />
        </mxCell>
        <mxCell id="RC1J0I_5zovOuxV37Q9L-85" value="(" style="text;html=1;strokeColor=none;fillColor=none;align=center;verticalAlign=middle;whiteSpace=wrap;rounded=0;fontSize=15;fontFamily=Helvetica;fontColor=default;" parent="1" vertex="1">
          <mxGeometry x="282.5" width="30" height="30" as="geometry" />
        </mxCell>
        <mxCell id="RC1J0I_5zovOuxV37Q9L-87" value=")" style="text;html=1;strokeColor=none;fillColor=none;align=center;verticalAlign=middle;whiteSpace=wrap;rounded=0;fontSize=15;fontFamily=Helvetica;fontColor=default;" parent="1" vertex="1">
          <mxGeometry x="285.75" y="50" width="30" height="30" as="geometry" />
        </mxCell>
        <mxCell id="RC1J0I_5zovOuxV37Q9L-88" value="{" style="text;html=1;strokeColor=none;fillColor=none;align=center;verticalAlign=middle;whiteSpace=wrap;rounded=0;fontSize=15;fontFamily=Helvetica;fontColor=default;" parent="1" vertex="1">
          <mxGeometry x="286.25" y="110" width="30" height="30" as="geometry" />
        </mxCell>
        <mxCell id="RC1J0I_5zovOuxV37Q9L-89" value="}" style="text;html=1;strokeColor=none;fillColor=none;align=center;verticalAlign=middle;whiteSpace=wrap;rounded=0;fontSize=15;fontFamily=Helvetica;fontColor=default;" parent="1" vertex="1">
          <mxGeometry x="286.75" y="150" width="30" height="30" as="geometry" />
        </mxCell>
        <mxCell id="RC1J0I_5zovOuxV37Q9L-90" value="," style="text;html=1;strokeColor=none;fillColor=none;align=center;verticalAlign=middle;whiteSpace=wrap;rounded=0;fontSize=15;fontFamily=Helvetica;fontColor=default;" parent="1" vertex="1">
          <mxGeometry x="287.25" y="210" width="30" height="30" as="geometry" />
        </mxCell>
        <mxCell id="RC1J0I_5zovOuxV37Q9L-91" value=";" style="text;html=1;strokeColor=none;fillColor=none;align=center;verticalAlign=middle;whiteSpace=wrap;rounded=0;fontSize=15;fontFamily=Helvetica;fontColor=default;" parent="1" vertex="1">
          <mxGeometry x="287.5" y="255" width="30" height="30" as="geometry" />
        </mxCell>
        <mxCell id="RC1J0I_5zovOuxV37Q9L-92" value="&lt;font style=&quot;font-size: 15px;&quot;&gt;Return (LPAR)&lt;/font&gt;" style="text;html=1;strokeColor=none;fillColor=none;align=center;verticalAlign=middle;whiteSpace=wrap;rounded=0;fontSize=15;" parent="1" vertex="1">
          <mxGeometry x="392.5" y="20" width="111.25" height="25" as="geometry" />
        </mxCell>
        <mxCell id="RC1J0I_5zovOuxV37Q9L-93" value="&lt;font style=&quot;font-size: 15px;&quot;&gt;Return (RPAR)&lt;/font&gt;" style="text;html=1;strokeColor=none;fillColor=none;align=center;verticalAlign=middle;whiteSpace=wrap;rounded=0;fontSize=15;" parent="1" vertex="1">
          <mxGeometry x="392.5" y="67.5" width="111.25" height="25" as="geometry" />
        </mxCell>
        <mxCell id="RC1J0I_5zovOuxV37Q9L-94" value="&lt;font style=&quot;font-size: 15px;&quot;&gt;Return (LCUR)&lt;/font&gt;" style="text;html=1;strokeColor=none;fillColor=none;align=center;verticalAlign=middle;whiteSpace=wrap;rounded=0;fontSize=15;" parent="1" vertex="1">
          <mxGeometry x="392.5" y="127.5" width="111.25" height="25" as="geometry" />
        </mxCell>
        <mxCell id="RC1J0I_5zovOuxV37Q9L-95" value="&lt;font style=&quot;font-size: 15px;&quot;&gt;Return (RCUR)&lt;/font&gt;" style="text;html=1;strokeColor=none;fillColor=none;align=center;verticalAlign=middle;whiteSpace=wrap;rounded=0;fontSize=15;" parent="1" vertex="1">
          <mxGeometry x="396.88" y="170" width="111.25" height="25" as="geometry" />
        </mxCell>
        <mxCell id="RC1J0I_5zovOuxV37Q9L-96" value="&lt;font style=&quot;font-size: 15px;&quot;&gt;Return (COM)&lt;/font&gt;" style="text;html=1;strokeColor=none;fillColor=none;align=center;verticalAlign=middle;whiteSpace=wrap;rounded=0;fontSize=15;" parent="1" vertex="1">
          <mxGeometry x="396" y="227.5" width="111.25" height="25" as="geometry" />
        </mxCell>
        <mxCell id="RC1J0I_5zovOuxV37Q9L-97" value="&lt;font style=&quot;font-size: 15px;&quot;&gt;Return (SEMI)&lt;/font&gt;" style="text;html=1;strokeColor=none;fillColor=none;align=center;verticalAlign=middle;whiteSpace=wrap;rounded=0;fontSize=15;" parent="1" vertex="1">
          <mxGeometry x="395" y="272.5" width="111.25" height="25" as="geometry" />
        </mxCell>
        <mxCell id="RC1J0I_5zovOuxV37Q9L-149" style="edgeStyle=orthogonalEdgeStyle;shape=connector;curved=1;rounded=1;orthogonalLoop=1;jettySize=auto;html=1;entryX=0.5;entryY=0;entryDx=0;entryDy=0;labelBackgroundColor=default;strokeColor=default;align=center;verticalAlign=middle;fontFamily=Helvetica;fontSize=11;fontColor=default;endArrow=classic;exitX=0;exitY=1;exitDx=0;exitDy=0;" parent="1" target="RC1J0I_5zovOuxV37Q9L-146" edge="1">
          <mxGeometry relative="1" as="geometry">
            <mxPoint x="199.34786437626911" y="1774.142135623731" as="sourcePoint" />
            <mxPoint x="160.11" y="1855" as="targetPoint" />
            <Array as="points">
              <mxPoint x="195.75" y="1774" />
              <mxPoint x="156.75" y="1775" />
            </Array>
          </mxGeometry>
        </mxCell>
        <mxCell id="RC1J0I_5zovOuxV37Q9L-153" style="edgeStyle=orthogonalEdgeStyle;shape=connector;curved=1;rounded=1;orthogonalLoop=1;jettySize=auto;html=1;labelBackgroundColor=default;strokeColor=default;align=center;verticalAlign=middle;fontFamily=Helvetica;fontSize=11;fontColor=default;endArrow=classic;" parent="1" source="RC1J0I_5zovOuxV37Q9L-104" target="RC1J0I_5zovOuxV37Q9L-150" edge="1">
          <mxGeometry relative="1" as="geometry">
            <Array as="points">
              <mxPoint x="209.75" y="1670" />
            </Array>
          </mxGeometry>
        </mxCell>
        <mxCell id="RC1J0I_5zovOuxV37Q9L-155" style="edgeStyle=orthogonalEdgeStyle;shape=connector;curved=1;rounded=1;orthogonalLoop=1;jettySize=auto;html=1;entryX=0;entryY=0.5;entryDx=0;entryDy=0;labelBackgroundColor=default;strokeColor=default;align=center;verticalAlign=middle;fontFamily=Helvetica;fontSize=11;fontColor=default;endArrow=classic;" parent="1" source="RC1J0I_5zovOuxV37Q9L-104" edge="1">
          <mxGeometry relative="1" as="geometry">
            <mxPoint x="316.25" y="1765" as="targetPoint" />
          </mxGeometry>
        </mxCell>
        <mxCell id="RC1J0I_5zovOuxV37Q9L-157" style="edgeStyle=orthogonalEdgeStyle;shape=connector;curved=1;rounded=1;orthogonalLoop=1;jettySize=auto;html=1;entryX=0;entryY=0.5;entryDx=0;entryDy=0;labelBackgroundColor=default;strokeColor=default;align=center;verticalAlign=middle;fontFamily=Helvetica;fontSize=11;fontColor=default;endArrow=classic;exitX=1;exitY=1;exitDx=0;exitDy=0;" parent="1" source="RC1J0I_5zovOuxV37Q9L-104" target="RC1J0I_5zovOuxV37Q9L-152" edge="1">
          <mxGeometry relative="1" as="geometry">
            <Array as="points">
              <mxPoint x="242.75" y="1779" />
              <mxPoint x="242.75" y="1839" />
              <mxPoint x="310.75" y="1839" />
            </Array>
          </mxGeometry>
        </mxCell>
        <mxCell id="RC1J0I_5zovOuxV37Q9L-159" style="edgeStyle=orthogonalEdgeStyle;shape=connector;curved=1;rounded=1;orthogonalLoop=1;jettySize=auto;html=1;labelBackgroundColor=default;strokeColor=default;align=center;verticalAlign=middle;fontFamily=Helvetica;fontSize=11;fontColor=default;endArrow=classic;entryX=0.032;entryY=0.621;entryDx=0;entryDy=0;entryPerimeter=0;" parent="1" target="RC1J0I_5zovOuxV37Q9L-160" edge="1">
          <mxGeometry relative="1" as="geometry">
            <mxPoint x="313.63" y="1961.25" as="targetPoint" />
            <Array as="points">
              <mxPoint x="213.63" y="1931.25" />
              <mxPoint x="331.63" y="1931.25" />
            </Array>
            <mxPoint x="213.67999999999995" y="1785.0035996544661" as="sourcePoint" />
          </mxGeometry>
        </mxCell>
        <mxCell id="RC1J0I_5zovOuxV37Q9L-104" value="6" style="ellipse;whiteSpace=wrap;html=1;aspect=fixed;" parent="1" vertex="1">
          <mxGeometry x="189.75" y="1745" width="40" height="40" as="geometry" />
        </mxCell>
        <mxCell id="RC1J0I_5zovOuxV37Q9L-105" value="" style="endArrow=classic;html=1;rounded=0;" parent="1" edge="1">
          <mxGeometry width="50" height="50" relative="1" as="geometry">
            <mxPoint x="139.75" y="1765" as="sourcePoint" />
            <mxPoint x="189.75" y="1765" as="targetPoint" />
          </mxGeometry>
        </mxCell>
        <mxCell id="RC1J0I_5zovOuxV37Q9L-106" value="Start" style="text;html=1;strokeColor=none;fillColor=none;align=center;verticalAlign=middle;whiteSpace=wrap;rounded=0;fontSize=15;" parent="1" vertex="1">
          <mxGeometry x="139.75" y="1745" width="40" height="20" as="geometry" />
        </mxCell>
        <mxCell id="RC1J0I_5zovOuxV37Q9L-107" value="&lt;b&gt;&lt;i&gt;OPERATOR&lt;/i&gt;&lt;/b&gt;" style="text;html=1;strokeColor=none;fillColor=none;align=center;verticalAlign=middle;whiteSpace=wrap;rounded=0;fontSize=15;fontFamily=Helvetica;fontColor=default;" parent="1" vertex="1">
          <mxGeometry x="93.75" y="1700" width="60" height="30" as="geometry" />
        </mxCell>
        <mxCell id="RC1J0I_5zovOuxV37Q9L-146" value="" style="ellipse;whiteSpace=wrap;html=1;aspect=fixed;" parent="1" vertex="1">
          <mxGeometry x="136.37" y="1860" width="40" height="40" as="geometry" />
        </mxCell>
        <mxCell id="RC1J0I_5zovOuxV37Q9L-147" value="ERR" style="ellipse;whiteSpace=wrap;html=1;aspect=fixed;" parent="1" vertex="1">
          <mxGeometry x="141.37" y="1865" width="30" height="30" as="geometry" />
        </mxCell>
        <mxCell id="RC1J0I_5zovOuxV37Q9L-148" value="&lt;font style=&quot;font-size: 13px;&quot;&gt;Return (ERR)&lt;/font&gt;" style="text;html=1;strokeColor=none;fillColor=none;align=center;verticalAlign=middle;whiteSpace=wrap;rounded=0;fontSize=13;" parent="1" vertex="1">
          <mxGeometry x="111.37" y="1895" width="87.5" height="35" as="geometry" />
        </mxCell>
        <mxCell id="RC1J0I_5zovOuxV37Q9L-169" style="edgeStyle=orthogonalEdgeStyle;shape=connector;curved=1;rounded=1;orthogonalLoop=1;jettySize=auto;html=1;entryX=0;entryY=0.5;entryDx=0;entryDy=0;labelBackgroundColor=default;strokeColor=default;align=center;verticalAlign=middle;fontFamily=Helvetica;fontSize=11;fontColor=default;endArrow=classic;" parent="1" source="RC1J0I_5zovOuxV37Q9L-150" target="RC1J0I_5zovOuxV37Q9L-167" edge="1">
          <mxGeometry relative="1" as="geometry">
            <Array as="points">
              <mxPoint x="332.75" y="1600" />
            </Array>
          </mxGeometry>
        </mxCell>
        <mxCell id="RC1J0I_5zovOuxV37Q9L-171" style="edgeStyle=orthogonalEdgeStyle;shape=connector;curved=1;rounded=1;orthogonalLoop=1;jettySize=auto;html=1;entryX=0;entryY=0.5;entryDx=0;entryDy=0;labelBackgroundColor=default;strokeColor=default;align=center;verticalAlign=middle;fontFamily=Helvetica;fontSize=11;fontColor=default;endArrow=classic;" parent="1" source="RC1J0I_5zovOuxV37Q9L-150" edge="1">
          <mxGeometry relative="1" as="geometry">
            <mxPoint x="418.75" y="1660" as="targetPoint" />
          </mxGeometry>
        </mxCell>
        <mxCell id="RC1J0I_5zovOuxV37Q9L-150" value="7" style="ellipse;whiteSpace=wrap;html=1;aspect=fixed;" parent="1" vertex="1">
          <mxGeometry x="312.25" y="1640" width="40" height="40" as="geometry" />
        </mxCell>
        <mxCell id="RC1J0I_5zovOuxV37Q9L-187" style="edgeStyle=orthogonalEdgeStyle;shape=connector;curved=1;rounded=1;orthogonalLoop=1;jettySize=auto;html=1;labelBackgroundColor=default;strokeColor=default;align=center;verticalAlign=middle;fontFamily=Helvetica;fontSize=11;fontColor=default;endArrow=classic;" parent="1" source="RC1J0I_5zovOuxV37Q9L-152" target="RC1J0I_5zovOuxV37Q9L-183" edge="1">
          <mxGeometry relative="1" as="geometry">
            <Array as="points">
              <mxPoint x="337.75" y="1810" />
            </Array>
          </mxGeometry>
        </mxCell>
        <mxCell id="RC1J0I_5zovOuxV37Q9L-152" value="8" style="ellipse;whiteSpace=wrap;html=1;aspect=fixed;" parent="1" vertex="1">
          <mxGeometry x="317.75" y="1820" width="40" height="40" as="geometry" />
        </mxCell>
        <mxCell id="RC1J0I_5zovOuxV37Q9L-154" value="&lt;font style=&quot;font-size: 15px;&quot;&gt;&amp;lt;&lt;/font&gt;" style="text;html=1;strokeColor=none;fillColor=none;align=center;verticalAlign=middle;whiteSpace=wrap;rounded=0;" parent="1" vertex="1">
          <mxGeometry x="220.25" y="1640" width="45" height="20" as="geometry" />
        </mxCell>
        <mxCell id="RC1J0I_5zovOuxV37Q9L-156" value="&lt;span style=&quot;font-size: 15px;&quot;&gt;=&lt;/span&gt;" style="text;html=1;strokeColor=none;fillColor=none;align=center;verticalAlign=middle;whiteSpace=wrap;rounded=0;" parent="1" vertex="1">
          <mxGeometry x="243.75" y="1740" width="45" height="20" as="geometry" />
        </mxCell>
        <mxCell id="RC1J0I_5zovOuxV37Q9L-158" value="&lt;font style=&quot;font-size: 15px;&quot;&gt;&amp;gt;&lt;/font&gt;" style="text;html=1;strokeColor=none;fillColor=none;align=center;verticalAlign=middle;whiteSpace=wrap;rounded=0;" parent="1" vertex="1">
          <mxGeometry x="251.25" y="1810" width="45" height="20" as="geometry" />
        </mxCell>
        <mxCell id="RC1J0I_5zovOuxV37Q9L-162" style="edgeStyle=orthogonalEdgeStyle;shape=connector;curved=1;rounded=1;orthogonalLoop=1;jettySize=auto;html=1;labelBackgroundColor=default;strokeColor=default;align=center;verticalAlign=middle;fontFamily=Helvetica;fontSize=11;fontColor=default;endArrow=classic;" parent="1" source="RC1J0I_5zovOuxV37Q9L-160" edge="1">
          <mxGeometry relative="1" as="geometry">
            <mxPoint x="443.63" y="1925.25" as="targetPoint" />
          </mxGeometry>
        </mxCell>
        <mxCell id="RC1J0I_5zovOuxV37Q9L-222" style="edgeStyle=orthogonalEdgeStyle;shape=connector;curved=1;rounded=1;orthogonalLoop=1;jettySize=auto;html=1;entryX=0.5;entryY=0;entryDx=0;entryDy=0;labelBackgroundColor=default;strokeColor=default;align=center;verticalAlign=middle;fontFamily=Helvetica;fontSize=11;fontColor=default;endArrow=classic;" parent="1" source="RC1J0I_5zovOuxV37Q9L-160" target="RC1J0I_5zovOuxV37Q9L-219" edge="1">
          <mxGeometry relative="1" as="geometry" />
        </mxCell>
        <mxCell id="RC1J0I_5zovOuxV37Q9L-160" value="10" style="ellipse;whiteSpace=wrap;html=1;aspect=fixed;" parent="1" vertex="1">
          <mxGeometry x="334.63" y="1905.25" width="40" height="40" as="geometry" />
        </mxCell>
        <mxCell id="RC1J0I_5zovOuxV37Q9L-161" value="&lt;span style=&quot;font-size: 15px;&quot;&gt;!&lt;/span&gt;" style="text;html=1;strokeColor=none;fillColor=none;align=center;verticalAlign=middle;whiteSpace=wrap;rounded=0;" parent="1" vertex="1">
          <mxGeometry x="258.63" y="1903.75" width="45" height="20" as="geometry" />
        </mxCell>
        <mxCell id="RC1J0I_5zovOuxV37Q9L-164" value="" style="ellipse;whiteSpace=wrap;html=1;aspect=fixed;" parent="1" vertex="1">
          <mxGeometry x="317.75" y="1745" width="40" height="40" as="geometry" />
        </mxCell>
        <mxCell id="RC1J0I_5zovOuxV37Q9L-165" value="EQ" style="ellipse;whiteSpace=wrap;html=1;aspect=fixed;" parent="1" vertex="1">
          <mxGeometry x="322.75" y="1750" width="30" height="30" as="geometry" />
        </mxCell>
        <mxCell id="RC1J0I_5zovOuxV37Q9L-166" value="&lt;font style=&quot;font-size: 13px;&quot;&gt;Return (EQ)&lt;/font&gt;" style="text;html=1;strokeColor=none;fillColor=none;align=center;verticalAlign=middle;whiteSpace=wrap;rounded=0;fontSize=13;" parent="1" vertex="1">
          <mxGeometry x="356.75" y="1760" width="84" height="15" as="geometry" />
        </mxCell>
        <mxCell id="RC1J0I_5zovOuxV37Q9L-197" style="edgeStyle=orthogonalEdgeStyle;shape=connector;curved=1;rounded=1;orthogonalLoop=1;jettySize=auto;html=1;labelBackgroundColor=default;strokeColor=default;align=center;verticalAlign=middle;fontFamily=Helvetica;fontSize=11;fontColor=default;endArrow=classic;" parent="1" source="RC1J0I_5zovOuxV37Q9L-167" edge="1">
          <mxGeometry relative="1" as="geometry">
            <mxPoint x="562.75" y="1560" as="targetPoint" />
            <Array as="points">
              <mxPoint x="437.75" y="1560" />
            </Array>
          </mxGeometry>
        </mxCell>
        <mxCell id="RC1J0I_5zovOuxV37Q9L-204" style="edgeStyle=orthogonalEdgeStyle;shape=connector;curved=1;rounded=1;orthogonalLoop=1;jettySize=auto;html=1;entryX=0;entryY=0.5;entryDx=0;entryDy=0;labelBackgroundColor=default;strokeColor=default;align=center;verticalAlign=middle;fontFamily=Helvetica;fontSize=11;fontColor=default;endArrow=classic;" parent="1" source="RC1J0I_5zovOuxV37Q9L-167" target="RC1J0I_5zovOuxV37Q9L-199" edge="1">
          <mxGeometry relative="1" as="geometry">
            <Array as="points">
              <mxPoint x="437.75" y="1625" />
            </Array>
          </mxGeometry>
        </mxCell>
        <mxCell id="RC1J0I_5zovOuxV37Q9L-167" value="9" style="ellipse;whiteSpace=wrap;html=1;aspect=fixed;" parent="1" vertex="1">
          <mxGeometry x="417.75" y="1580" width="40" height="40" as="geometry" />
        </mxCell>
        <mxCell id="RC1J0I_5zovOuxV37Q9L-170" value="&lt;span style=&quot;font-size: 15px;&quot;&gt;-&lt;/span&gt;" style="text;html=1;strokeColor=none;fillColor=none;align=center;verticalAlign=middle;whiteSpace=wrap;rounded=0;" parent="1" vertex="1">
          <mxGeometry x="341" y="1580" width="45" height="20" as="geometry" />
        </mxCell>
        <mxCell id="RC1J0I_5zovOuxV37Q9L-172" value="&lt;span style=&quot;font-size: 15px;&quot;&gt;=&lt;/span&gt;" style="text;html=1;strokeColor=none;fillColor=none;align=center;verticalAlign=middle;whiteSpace=wrap;rounded=0;" parent="1" vertex="1">
          <mxGeometry x="359.75" y="1640" width="45" height="20" as="geometry" />
        </mxCell>
        <mxCell id="RC1J0I_5zovOuxV37Q9L-173" value="&lt;span style=&quot;font-size: 15px;&quot;&gt;other&lt;/span&gt;" style="text;html=1;strokeColor=none;fillColor=none;align=center;verticalAlign=middle;whiteSpace=wrap;rounded=0;" parent="1" vertex="1">
          <mxGeometry x="359.75" y="1700" width="45" height="20" as="geometry" />
        </mxCell>
        <mxCell id="RC1J0I_5zovOuxV37Q9L-175" style="edgeStyle=orthogonalEdgeStyle;shape=connector;curved=1;rounded=1;orthogonalLoop=1;jettySize=auto;html=1;entryX=0.102;entryY=0.711;entryDx=0;entryDy=0;entryPerimeter=0;labelBackgroundColor=default;strokeColor=default;align=center;verticalAlign=middle;fontFamily=Helvetica;fontSize=11;fontColor=default;endArrow=classic;" parent="1" source="RC1J0I_5zovOuxV37Q9L-150" edge="1">
          <mxGeometry relative="1" as="geometry">
            <mxPoint x="419.33000000000015" y="1733.44" as="targetPoint" />
            <Array as="points">
              <mxPoint x="332.75" y="1733" />
            </Array>
          </mxGeometry>
        </mxCell>
        <mxCell id="RC1J0I_5zovOuxV37Q9L-176" value="" style="ellipse;whiteSpace=wrap;html=1;aspect=fixed;" parent="1" vertex="1">
          <mxGeometry x="419.63" y="1710" width="40" height="40" as="geometry" />
        </mxCell>
        <mxCell id="RC1J0I_5zovOuxV37Q9L-177" value="LT" style="ellipse;whiteSpace=wrap;html=1;aspect=fixed;" parent="1" vertex="1">
          <mxGeometry x="424.63" y="1715" width="30" height="30" as="geometry" />
        </mxCell>
        <mxCell id="RC1J0I_5zovOuxV37Q9L-178" value="&lt;font style=&quot;font-size: 13px;&quot;&gt;Return (LT)&lt;/font&gt;" style="text;html=1;strokeColor=none;fillColor=none;align=center;verticalAlign=middle;whiteSpace=wrap;rounded=0;fontSize=13;" parent="1" vertex="1">
          <mxGeometry x="459.63" y="1728.75" width="84" height="16.25" as="geometry" />
        </mxCell>
        <mxCell id="RC1J0I_5zovOuxV37Q9L-179" value="" style="ellipse;whiteSpace=wrap;html=1;aspect=fixed;" parent="1" vertex="1">
          <mxGeometry x="419.63" y="1640" width="40" height="40" as="geometry" />
        </mxCell>
        <mxCell id="RC1J0I_5zovOuxV37Q9L-180" value="LE" style="ellipse;whiteSpace=wrap;html=1;aspect=fixed;" parent="1" vertex="1">
          <mxGeometry x="424.63" y="1645" width="30" height="30" as="geometry" />
        </mxCell>
        <mxCell id="RC1J0I_5zovOuxV37Q9L-181" value="&lt;font style=&quot;font-size: 13px;&quot;&gt;Return (LE)&lt;/font&gt;" style="text;html=1;strokeColor=none;fillColor=none;align=center;verticalAlign=middle;whiteSpace=wrap;rounded=0;fontSize=13;" parent="1" vertex="1">
          <mxGeometry x="457.75" y="1655" width="84" height="10" as="geometry" />
        </mxCell>
        <mxCell id="RC1J0I_5zovOuxV37Q9L-182" value="&lt;span style=&quot;font-size: 15px;&quot;&gt;=&lt;/span&gt;" style="text;html=1;strokeColor=none;fillColor=none;align=center;verticalAlign=middle;whiteSpace=wrap;rounded=0;" parent="1" vertex="1">
          <mxGeometry x="359.75" y="1790" width="45" height="20" as="geometry" />
        </mxCell>
        <mxCell id="RC1J0I_5zovOuxV37Q9L-183" value="" style="ellipse;whiteSpace=wrap;html=1;aspect=fixed;" parent="1" vertex="1">
          <mxGeometry x="426.63" y="1800" width="40" height="40" as="geometry" />
        </mxCell>
        <mxCell id="RC1J0I_5zovOuxV37Q9L-184" value="GE" style="ellipse;whiteSpace=wrap;html=1;aspect=fixed;" parent="1" vertex="1">
          <mxGeometry x="431.63" y="1805" width="30" height="30" as="geometry" />
        </mxCell>
        <mxCell id="RC1J0I_5zovOuxV37Q9L-185" value="&lt;font style=&quot;font-size: 13px;&quot;&gt;Return (GE)&lt;/font&gt;" style="text;html=1;strokeColor=none;fillColor=none;align=center;verticalAlign=middle;whiteSpace=wrap;rounded=0;fontSize=13;" parent="1" vertex="1">
          <mxGeometry x="464.75" y="1815" width="84" height="10" as="geometry" />
        </mxCell>
        <mxCell id="RC1J0I_5zovOuxV37Q9L-188" value="&lt;span style=&quot;font-size: 15px;&quot;&gt;other&lt;/span&gt;" style="text;html=1;strokeColor=none;fillColor=none;align=center;verticalAlign=middle;whiteSpace=wrap;rounded=0;" parent="1" vertex="1">
          <mxGeometry x="367.75" y="1855" width="45" height="20" as="geometry" />
        </mxCell>
        <mxCell id="RC1J0I_5zovOuxV37Q9L-190" value="" style="ellipse;whiteSpace=wrap;html=1;aspect=fixed;" parent="1" vertex="1">
          <mxGeometry x="427.88" y="1850" width="40" height="40" as="geometry" />
        </mxCell>
        <mxCell id="RC1J0I_5zovOuxV37Q9L-191" value="GT" style="ellipse;whiteSpace=wrap;html=1;aspect=fixed;" parent="1" vertex="1">
          <mxGeometry x="432.88" y="1855" width="30" height="30" as="geometry" />
        </mxCell>
        <mxCell id="RC1J0I_5zovOuxV37Q9L-192" value="&lt;font style=&quot;font-size: 13px;&quot;&gt;Return (GT)&lt;/font&gt;" style="text;html=1;strokeColor=none;fillColor=none;align=center;verticalAlign=middle;whiteSpace=wrap;rounded=0;fontSize=13;" parent="1" vertex="1">
          <mxGeometry x="467.88" y="1868.75" width="84" height="16.25" as="geometry" />
        </mxCell>
        <mxCell id="RC1J0I_5zovOuxV37Q9L-193" style="edgeStyle=orthogonalEdgeStyle;shape=connector;curved=1;rounded=1;orthogonalLoop=1;jettySize=auto;html=1;entryX=0.04;entryY=0.692;entryDx=0;entryDy=0;entryPerimeter=0;labelBackgroundColor=default;strokeColor=default;align=center;verticalAlign=middle;fontFamily=Helvetica;fontSize=11;fontColor=default;endArrow=classic;" parent="1" source="RC1J0I_5zovOuxV37Q9L-152" target="RC1J0I_5zovOuxV37Q9L-190" edge="1">
          <mxGeometry relative="1" as="geometry">
            <Array as="points">
              <mxPoint x="337.75" y="1878" />
            </Array>
          </mxGeometry>
        </mxCell>
        <mxCell id="RC1J0I_5zovOuxV37Q9L-194" value="&lt;font style=&quot;font-size: 30px;&quot;&gt;*&lt;/font&gt;" style="text;html=1;strokeColor=none;fillColor=none;align=center;verticalAlign=middle;whiteSpace=wrap;rounded=0;" parent="1" vertex="1">
          <mxGeometry x="457.75" y="1708.75" width="25" height="11.25" as="geometry" />
        </mxCell>
        <mxCell id="RC1J0I_5zovOuxV37Q9L-195" value="&lt;font style=&quot;font-size: 30px;&quot;&gt;*&lt;/font&gt;" style="text;html=1;strokeColor=none;fillColor=none;align=center;verticalAlign=middle;whiteSpace=wrap;rounded=0;" parent="1" vertex="1">
          <mxGeometry x="466.63" y="1849" width="25" height="26" as="geometry" />
        </mxCell>
        <mxCell id="RC1J0I_5zovOuxV37Q9L-198" value="&lt;span style=&quot;font-size: 15px;&quot;&gt;-&lt;/span&gt;" style="text;html=1;strokeColor=none;fillColor=none;align=center;verticalAlign=middle;whiteSpace=wrap;rounded=0;" parent="1" vertex="1">
          <mxGeometry x="485.75" y="1540" width="45" height="20" as="geometry" />
        </mxCell>
        <mxCell id="RC1J0I_5zovOuxV37Q9L-199" value="" style="ellipse;whiteSpace=wrap;html=1;aspect=fixed;" parent="1" vertex="1">
          <mxGeometry x="502.75" y="1605" width="40" height="40" as="geometry" />
        </mxCell>
        <mxCell id="RC1J0I_5zovOuxV37Q9L-200" value="LT" style="ellipse;whiteSpace=wrap;html=1;aspect=fixed;" parent="1" vertex="1">
          <mxGeometry x="507.75" y="1610" width="30" height="30" as="geometry" />
        </mxCell>
        <mxCell id="RC1J0I_5zovOuxV37Q9L-201" value="&lt;font style=&quot;font-size: 13px;&quot;&gt;Return (LT)&lt;/font&gt;" style="text;html=1;strokeColor=none;fillColor=none;align=center;verticalAlign=middle;whiteSpace=wrap;rounded=0;fontSize=13;" parent="1" vertex="1">
          <mxGeometry x="546.25" y="1616.88" width="84" height="16.25" as="geometry" />
        </mxCell>
        <mxCell id="RC1J0I_5zovOuxV37Q9L-202" value="&lt;font style=&quot;font-size: 30px;&quot;&gt;*&lt;/font&gt;" style="text;html=1;strokeColor=none;fillColor=none;align=center;verticalAlign=middle;whiteSpace=wrap;rounded=0;" parent="1" vertex="1">
          <mxGeometry x="540.87" y="1603.75" width="25" height="11.25" as="geometry" />
        </mxCell>
        <mxCell id="RC1J0I_5zovOuxV37Q9L-203" value="&lt;font style=&quot;font-size: 30px;&quot;&gt;*&lt;/font&gt;" style="text;html=1;strokeColor=none;fillColor=none;align=center;verticalAlign=middle;whiteSpace=wrap;rounded=0;" parent="1" vertex="1">
          <mxGeometry x="554.37" y="1600.3100000000002" width="25" height="18.12" as="geometry" />
        </mxCell>
        <mxCell id="RC1J0I_5zovOuxV37Q9L-205" value="&lt;span style=&quot;font-size: 15px;&quot;&gt;other&lt;/span&gt;" style="text;html=1;strokeColor=none;fillColor=none;align=center;verticalAlign=middle;whiteSpace=wrap;rounded=0;" parent="1" vertex="1">
          <mxGeometry x="459.63" y="1601.88" width="45" height="20" as="geometry" />
        </mxCell>
        <mxCell id="RC1J0I_5zovOuxV37Q9L-208" value="" style="ellipse;whiteSpace=wrap;html=1;aspect=fixed;" parent="1" vertex="1">
          <mxGeometry x="560.25" y="1540" width="40" height="40" as="geometry" />
        </mxCell>
        <mxCell id="RC1J0I_5zovOuxV37Q9L-209" value="ASS" style="ellipse;whiteSpace=wrap;html=1;aspect=fixed;" parent="1" vertex="1">
          <mxGeometry x="565.25" y="1545" width="30" height="30" as="geometry" />
        </mxCell>
        <mxCell id="RC1J0I_5zovOuxV37Q9L-210" value="&lt;font style=&quot;font-size: 13px;&quot;&gt;Return (ASS)&lt;/font&gt;" style="text;html=1;strokeColor=none;fillColor=none;align=center;verticalAlign=middle;whiteSpace=wrap;rounded=0;fontSize=13;" parent="1" vertex="1">
          <mxGeometry x="603.75" y="1551.8700000000001" width="84" height="16.25" as="geometry" />
        </mxCell>
        <mxCell id="RC1J0I_5zovOuxV37Q9L-213" value="&lt;span style=&quot;font-size: 15px;&quot;&gt;=&lt;/span&gt;" style="text;html=1;strokeColor=none;fillColor=none;align=center;verticalAlign=middle;whiteSpace=wrap;rounded=0;" parent="1" vertex="1">
          <mxGeometry x="379.63" y="1901.25" width="45" height="20" as="geometry" />
        </mxCell>
        <mxCell id="RC1J0I_5zovOuxV37Q9L-214" value="" style="ellipse;whiteSpace=wrap;html=1;aspect=fixed;" parent="1" vertex="1">
          <mxGeometry x="443.13" y="1905.25" width="40" height="40" as="geometry" />
        </mxCell>
        <mxCell id="RC1J0I_5zovOuxV37Q9L-215" value="NE" style="ellipse;whiteSpace=wrap;html=1;aspect=fixed;" parent="1" vertex="1">
          <mxGeometry x="448.13" y="1910.25" width="30" height="30" as="geometry" />
        </mxCell>
        <mxCell id="RC1J0I_5zovOuxV37Q9L-216" value="&lt;font style=&quot;font-size: 13px;&quot;&gt;Return (NE)&lt;/font&gt;" style="text;html=1;strokeColor=none;fillColor=none;align=center;verticalAlign=middle;whiteSpace=wrap;rounded=0;fontSize=13;" parent="1" vertex="1">
          <mxGeometry x="481.25" y="1920.25" width="84" height="10" as="geometry" />
        </mxCell>
        <mxCell id="RC1J0I_5zovOuxV37Q9L-217" value="&lt;span style=&quot;font-size: 15px;&quot;&gt;other&lt;/span&gt;" style="text;html=1;strokeColor=none;fillColor=none;align=center;verticalAlign=middle;whiteSpace=wrap;rounded=0;" parent="1" vertex="1">
          <mxGeometry x="107.75" y="1810" width="45" height="20" as="geometry" />
        </mxCell>
        <mxCell id="RC1J0I_5zovOuxV37Q9L-219" value="" style="ellipse;whiteSpace=wrap;html=1;aspect=fixed;" parent="1" vertex="1">
          <mxGeometry x="334.63" y="1991.25" width="40" height="40" as="geometry" />
        </mxCell>
        <mxCell id="RC1J0I_5zovOuxV37Q9L-220" value="ERR" style="ellipse;whiteSpace=wrap;html=1;aspect=fixed;" parent="1" vertex="1">
          <mxGeometry x="339.63" y="1996.25" width="30" height="30" as="geometry" />
        </mxCell>
        <mxCell id="RC1J0I_5zovOuxV37Q9L-221" value="&lt;font style=&quot;font-size: 13px;&quot;&gt;Return (ERR)&lt;/font&gt;" style="text;html=1;strokeColor=none;fillColor=none;align=center;verticalAlign=middle;whiteSpace=wrap;rounded=0;fontSize=13;" parent="1" vertex="1">
          <mxGeometry x="309.63" y="2026.25" width="87.5" height="35" as="geometry" />
        </mxCell>
        <mxCell id="RC1J0I_5zovOuxV37Q9L-223" value="&lt;span style=&quot;font-size: 15px;&quot;&gt;other&lt;/span&gt;" style="text;html=1;strokeColor=none;fillColor=none;align=center;verticalAlign=middle;whiteSpace=wrap;rounded=0;" parent="1" vertex="1">
          <mxGeometry x="304.63" y="1951.25" width="45" height="20" as="geometry" />
        </mxCell>
        <mxCell id="4SBqGV5DTgfFjnBWd8ox-9" style="edgeStyle=orthogonalEdgeStyle;orthogonalLoop=1;jettySize=auto;html=1;curved=1;" parent="1" source="4SBqGV5DTgfFjnBWd8ox-2" edge="1">
          <mxGeometry relative="1" as="geometry">
            <mxPoint x="132.37" y="2270" as="targetPoint" />
          </mxGeometry>
        </mxCell>
        <mxCell id="4SBqGV5DTgfFjnBWd8ox-32" style="edgeStyle=orthogonalEdgeStyle;shape=connector;curved=1;rounded=1;orthogonalLoop=1;jettySize=auto;html=1;entryX=0;entryY=0.5;entryDx=0;entryDy=0;labelBackgroundColor=default;strokeColor=default;align=center;verticalAlign=middle;fontFamily=Helvetica;fontSize=11;fontColor=default;endArrow=classic;" parent="1" source="4SBqGV5DTgfFjnBWd8ox-2" target="4SBqGV5DTgfFjnBWd8ox-11" edge="1">
          <mxGeometry relative="1" as="geometry" />
        </mxCell>
        <mxCell id="4SBqGV5DTgfFjnBWd8ox-34" style="edgeStyle=orthogonalEdgeStyle;shape=connector;curved=1;rounded=1;orthogonalLoop=1;jettySize=auto;html=1;entryX=0;entryY=0.5;entryDx=0;entryDy=0;labelBackgroundColor=default;strokeColor=default;align=center;verticalAlign=middle;fontFamily=Helvetica;fontSize=11;fontColor=default;endArrow=classic;" parent="1" source="4SBqGV5DTgfFjnBWd8ox-2" target="4SBqGV5DTgfFjnBWd8ox-26" edge="1">
          <mxGeometry relative="1" as="geometry" />
        </mxCell>
        <mxCell id="4SBqGV5DTgfFjnBWd8ox-35" style="edgeStyle=orthogonalEdgeStyle;shape=connector;curved=1;rounded=1;orthogonalLoop=1;jettySize=auto;html=1;entryX=0;entryY=0.5;entryDx=0;entryDy=0;labelBackgroundColor=default;strokeColor=default;align=center;verticalAlign=middle;fontFamily=Helvetica;fontSize=11;fontColor=default;endArrow=classic;" parent="1" source="4SBqGV5DTgfFjnBWd8ox-2" target="4SBqGV5DTgfFjnBWd8ox-23" edge="1">
          <mxGeometry relative="1" as="geometry" />
        </mxCell>
        <mxCell id="4SBqGV5DTgfFjnBWd8ox-36" style="edgeStyle=orthogonalEdgeStyle;shape=connector;curved=1;rounded=1;orthogonalLoop=1;jettySize=auto;html=1;entryX=0;entryY=0.5;entryDx=0;entryDy=0;labelBackgroundColor=default;strokeColor=default;align=center;verticalAlign=middle;fontFamily=Helvetica;fontSize=11;fontColor=default;endArrow=classic;" parent="1" source="4SBqGV5DTgfFjnBWd8ox-2" target="4SBqGV5DTgfFjnBWd8ox-29" edge="1">
          <mxGeometry relative="1" as="geometry" />
        </mxCell>
        <mxCell id="4SBqGV5DTgfFjnBWd8ox-2" value="0" style="ellipse;whiteSpace=wrap;html=1;aspect=fixed;" parent="1" vertex="1">
          <mxGeometry x="112.37" y="2160" width="40" height="40" as="geometry" />
        </mxCell>
        <mxCell id="4SBqGV5DTgfFjnBWd8ox-3" value="" style="endArrow=classic;html=1;rounded=0;" parent="1" edge="1">
          <mxGeometry width="50" height="50" relative="1" as="geometry">
            <mxPoint x="62.370000000000005" y="2180" as="sourcePoint" />
            <mxPoint x="112.37" y="2180" as="targetPoint" />
          </mxGeometry>
        </mxCell>
        <mxCell id="4SBqGV5DTgfFjnBWd8ox-4" value="Start" style="text;html=1;strokeColor=none;fillColor=none;align=center;verticalAlign=middle;whiteSpace=wrap;rounded=0;fontSize=15;" parent="1" vertex="1">
          <mxGeometry x="62.370000000000005" y="2160" width="40" height="20" as="geometry" />
        </mxCell>
        <mxCell id="4SBqGV5DTgfFjnBWd8ox-6" value="" style="ellipse;whiteSpace=wrap;html=1;aspect=fixed;" parent="1" vertex="1">
          <mxGeometry x="112.37" y="2270" width="40" height="40" as="geometry" />
        </mxCell>
        <mxCell id="4SBqGV5DTgfFjnBWd8ox-7" value="ERR" style="ellipse;whiteSpace=wrap;html=1;aspect=fixed;" parent="1" vertex="1">
          <mxGeometry x="117.37" y="2275" width="30" height="30" as="geometry" />
        </mxCell>
        <mxCell id="4SBqGV5DTgfFjnBWd8ox-8" value="&lt;span style=&quot;font-size: 15px;&quot;&gt;other&lt;/span&gt;" style="text;html=1;strokeColor=none;fillColor=none;align=center;verticalAlign=middle;whiteSpace=wrap;rounded=0;" parent="1" vertex="1">
          <mxGeometry x="79.87" y="2230" width="45" height="20" as="geometry" />
        </mxCell>
        <mxCell id="4SBqGV5DTgfFjnBWd8ox-11" value="" style="ellipse;whiteSpace=wrap;html=1;aspect=fixed;" parent="1" vertex="1">
          <mxGeometry x="251.25" y="2085" width="40" height="40" as="geometry" />
        </mxCell>
        <mxCell id="4SBqGV5DTgfFjnBWd8ox-12" value="ADD" style="ellipse;whiteSpace=wrap;html=1;aspect=fixed;" parent="1" vertex="1">
          <mxGeometry x="256.25" y="2090" width="30" height="30" as="geometry" />
        </mxCell>
        <mxCell id="4SBqGV5DTgfFjnBWd8ox-13" value="&lt;font style=&quot;font-size: 13px;&quot;&gt;Return (NE)&lt;/font&gt;" style="text;html=1;strokeColor=none;fillColor=none;align=center;verticalAlign=middle;whiteSpace=wrap;rounded=0;fontSize=13;" parent="1" vertex="1">
          <mxGeometry x="289.37" y="2100" width="84" height="10" as="geometry" />
        </mxCell>
        <mxCell id="4SBqGV5DTgfFjnBWd8ox-23" value="" style="ellipse;whiteSpace=wrap;html=1;aspect=fixed;" parent="1" vertex="1">
          <mxGeometry x="251.62" y="2135" width="40" height="40" as="geometry" />
        </mxCell>
        <mxCell id="4SBqGV5DTgfFjnBWd8ox-24" value="MIN" style="ellipse;whiteSpace=wrap;html=1;aspect=fixed;" parent="1" vertex="1">
          <mxGeometry x="256.62" y="2140" width="30" height="30" as="geometry" />
        </mxCell>
        <mxCell id="4SBqGV5DTgfFjnBWd8ox-25" value="&lt;font style=&quot;font-size: 13px;&quot;&gt;Return (MIN)&lt;/font&gt;" style="text;html=1;strokeColor=none;fillColor=none;align=center;verticalAlign=middle;whiteSpace=wrap;rounded=0;fontSize=13;" parent="1" vertex="1">
          <mxGeometry x="289.74" y="2150" width="84" height="10" as="geometry" />
        </mxCell>
        <mxCell id="4SBqGV5DTgfFjnBWd8ox-26" value="" style="ellipse;whiteSpace=wrap;html=1;aspect=fixed;" parent="1" vertex="1">
          <mxGeometry x="251.25" y="2185" width="40" height="40" as="geometry" />
        </mxCell>
        <mxCell id="4SBqGV5DTgfFjnBWd8ox-27" value="MUL" style="ellipse;whiteSpace=wrap;html=1;aspect=fixed;" parent="1" vertex="1">
          <mxGeometry x="256.25" y="2190" width="30" height="30" as="geometry" />
        </mxCell>
        <mxCell id="4SBqGV5DTgfFjnBWd8ox-28" value="&lt;font style=&quot;font-size: 13px;&quot;&gt;Return (MUL)&lt;/font&gt;" style="text;html=1;strokeColor=none;fillColor=none;align=center;verticalAlign=middle;whiteSpace=wrap;rounded=0;fontSize=13;" parent="1" vertex="1">
          <mxGeometry x="289.37" y="2200" width="84" height="10" as="geometry" />
        </mxCell>
        <mxCell id="4SBqGV5DTgfFjnBWd8ox-29" value="" style="ellipse;whiteSpace=wrap;html=1;aspect=fixed;" parent="1" vertex="1">
          <mxGeometry x="251.62" y="2235" width="40" height="40" as="geometry" />
        </mxCell>
        <mxCell id="4SBqGV5DTgfFjnBWd8ox-30" value="DIV" style="ellipse;whiteSpace=wrap;html=1;aspect=fixed;" parent="1" vertex="1">
          <mxGeometry x="256.62" y="2240" width="30" height="30" as="geometry" />
        </mxCell>
        <mxCell id="4SBqGV5DTgfFjnBWd8ox-31" value="&lt;font style=&quot;font-size: 13px;&quot;&gt;Return (DIV)&lt;/font&gt;" style="text;html=1;strokeColor=none;fillColor=none;align=center;verticalAlign=middle;whiteSpace=wrap;rounded=0;fontSize=13;" parent="1" vertex="1">
          <mxGeometry x="289.74" y="2250" width="84" height="10" as="geometry" />
        </mxCell>
        <mxCell id="4SBqGV5DTgfFjnBWd8ox-37" value="&lt;font style=&quot;font-size: 15px;&quot;&gt;+&lt;/font&gt;" style="text;html=1;strokeColor=none;fillColor=none;align=center;verticalAlign=middle;whiteSpace=wrap;rounded=0;fontSize=11;fontFamily=Helvetica;fontColor=default;" parent="1" vertex="1">
          <mxGeometry x="220" y="2080" width="20" height="20" as="geometry" />
        </mxCell>
        <mxCell id="4SBqGV5DTgfFjnBWd8ox-38" value="&lt;span style=&quot;font-size: 15px;&quot;&gt;-&lt;/span&gt;" style="text;html=1;strokeColor=none;fillColor=none;align=center;verticalAlign=middle;whiteSpace=wrap;rounded=0;fontSize=11;fontFamily=Helvetica;fontColor=default;" parent="1" vertex="1">
          <mxGeometry x="220.25" y="2130" width="20" height="20" as="geometry" />
        </mxCell>
        <mxCell id="4SBqGV5DTgfFjnBWd8ox-39" value="&lt;span style=&quot;font-size: 15px;&quot;&gt;*&lt;/span&gt;" style="text;html=1;strokeColor=none;fillColor=none;align=center;verticalAlign=middle;whiteSpace=wrap;rounded=0;fontSize=11;fontFamily=Helvetica;fontColor=default;" parent="1" vertex="1">
          <mxGeometry x="220" y="2180" width="20" height="20" as="geometry" />
        </mxCell>
        <mxCell id="4SBqGV5DTgfFjnBWd8ox-40" value="&lt;span style=&quot;font-size: 15px;&quot;&gt;/&lt;/span&gt;" style="text;html=1;strokeColor=none;fillColor=none;align=center;verticalAlign=middle;whiteSpace=wrap;rounded=0;fontSize=11;fontFamily=Helvetica;fontColor=default;" parent="1" vertex="1">
          <mxGeometry x="224" y="2225" width="20" height="20" as="geometry" />
        </mxCell>
        <mxCell id="pVGxKQdoAzQ25-f3sAND-1" value="&lt;b&gt;&lt;i&gt;ARITMETIC OPERATOR&lt;/i&gt;&lt;/b&gt;" style="text;html=1;strokeColor=none;fillColor=none;align=center;verticalAlign=middle;whiteSpace=wrap;rounded=0;fontSize=15;fontFamily=Helvetica;fontColor=default;" parent="1" vertex="1">
          <mxGeometry x="52.75" y="2110" width="122.5" height="30" as="geometry" />
        </mxCell>
        <mxCell id="B_zJhtSemFq64WG5Uvhs-2" style="edgeStyle=orthogonalEdgeStyle;shape=connector;rounded=0;orthogonalLoop=1;jettySize=auto;html=1;labelBackgroundColor=default;strokeColor=default;align=center;verticalAlign=middle;fontFamily=Helvetica;fontSize=11;fontColor=default;endArrow=classic;entryX=0.5;entryY=0;entryDx=0;entryDy=0;" parent="1" source="B_zJhtSemFq64WG5Uvhs-4" target="B_zJhtSemFq64WG5Uvhs-7" edge="1">
          <mxGeometry relative="1" as="geometry">
            <mxPoint x="253.87" y="1155" as="targetPoint" />
          </mxGeometry>
        </mxCell>
        <mxCell id="B_zJhtSemFq64WG5Uvhs-3" style="edgeStyle=orthogonalEdgeStyle;shape=connector;curved=1;rounded=1;orthogonalLoop=1;jettySize=auto;html=1;entryX=0;entryY=0.5;entryDx=0;entryDy=0;labelBackgroundColor=default;strokeColor=default;align=center;verticalAlign=middle;fontFamily=Helvetica;fontSize=11;fontColor=default;endArrow=classic;exitX=1;exitY=0.5;exitDx=0;exitDy=0;" parent="1" source="B_zJhtSemFq64WG5Uvhs-4" target="B_zJhtSemFq64WG5Uvhs-10" edge="1">
          <mxGeometry relative="1" as="geometry">
            <mxPoint x="428.87000000000006" y="1085" as="sourcePoint" />
          </mxGeometry>
        </mxCell>
        <mxCell id="B_zJhtSemFq64WG5Uvhs-4" value="12" style="ellipse;whiteSpace=wrap;html=1;aspect=fixed;" parent="1" vertex="1">
          <mxGeometry x="233.87" y="1065" width="40" height="40" as="geometry" />
        </mxCell>
        <mxCell id="B_zJhtSemFq64WG5Uvhs-5" value="" style="endArrow=classic;html=1;rounded=0;" parent="1" edge="1">
          <mxGeometry width="50" height="50" relative="1" as="geometry">
            <mxPoint x="183.87" y="1085" as="sourcePoint" />
            <mxPoint x="233.87" y="1085" as="targetPoint" />
          </mxGeometry>
        </mxCell>
        <mxCell id="B_zJhtSemFq64WG5Uvhs-6" value="Start" style="text;html=1;strokeColor=none;fillColor=none;align=center;verticalAlign=middle;whiteSpace=wrap;rounded=0;fontSize=15;" parent="1" vertex="1">
          <mxGeometry x="183.87" y="1065" width="40" height="20" as="geometry" />
        </mxCell>
        <mxCell id="B_zJhtSemFq64WG5Uvhs-7" value="" style="ellipse;whiteSpace=wrap;html=1;aspect=fixed;" parent="1" vertex="1">
          <mxGeometry x="233.87" y="1165" width="40" height="40" as="geometry" />
        </mxCell>
        <mxCell id="B_zJhtSemFq64WG5Uvhs-8" value="ERR" style="ellipse;whiteSpace=wrap;html=1;aspect=fixed;" parent="1" vertex="1">
          <mxGeometry x="238.87" y="1170" width="30" height="30" as="geometry" />
        </mxCell>
        <mxCell id="B_zJhtSemFq64WG5Uvhs-9" value="other" style="text;html=1;strokeColor=none;fillColor=none;align=center;verticalAlign=middle;whiteSpace=wrap;rounded=0;fontSize=15;" parent="1" vertex="1">
          <mxGeometry x="208.87" y="1125" width="45" height="20" as="geometry" />
        </mxCell>
        <mxCell id="B_zJhtSemFq64WG5Uvhs-82" style="edgeStyle=orthogonalEdgeStyle;shape=connector;curved=1;rounded=1;orthogonalLoop=1;jettySize=auto;html=1;entryX=0.5;entryY=1;entryDx=0;entryDy=0;labelBackgroundColor=default;strokeColor=default;align=center;verticalAlign=middle;fontFamily=Helvetica;fontSize=11;fontColor=default;endArrow=classic;" parent="1" source="B_zJhtSemFq64WG5Uvhs-10" target="B_zJhtSemFq64WG5Uvhs-28" edge="1">
          <mxGeometry relative="1" as="geometry" />
        </mxCell>
        <mxCell id="B_zJhtSemFq64WG5Uvhs-10" value="13" style="ellipse;whiteSpace=wrap;html=1;aspect=fixed;" parent="1" vertex="1">
          <mxGeometry x="430.49999999999994" y="1065" width="40" height="40" as="geometry" />
        </mxCell>
        <mxCell id="B_zJhtSemFq64WG5Uvhs-11" value="&lt;font style=&quot;font-size: 15px;&quot;&gt;[1-9]&lt;/font&gt;" style="text;html=1;strokeColor=none;fillColor=none;align=center;verticalAlign=middle;whiteSpace=wrap;rounded=0;fontSize=15;fontFamily=Helvetica;fontColor=default;" parent="1" vertex="1">
          <mxGeometry x="338.87000000000006" y="1060" width="45" height="25" as="geometry" />
        </mxCell>
        <mxCell id="B_zJhtSemFq64WG5Uvhs-12" style="edgeStyle=orthogonalEdgeStyle;shape=connector;curved=1;rounded=1;orthogonalLoop=1;jettySize=auto;html=1;labelBackgroundColor=default;strokeColor=default;align=center;verticalAlign=middle;fontFamily=Helvetica;fontSize=11;fontColor=default;endArrow=classic;" parent="1" source="B_zJhtSemFq64WG5Uvhs-10" target="B_zJhtSemFq64WG5Uvhs-10" edge="1">
          <mxGeometry relative="1" as="geometry" />
        </mxCell>
        <mxCell id="B_zJhtSemFq64WG5Uvhs-13" value="digit" style="text;html=1;strokeColor=none;fillColor=none;align=center;verticalAlign=middle;whiteSpace=wrap;rounded=0;fontSize=15;fontFamily=Helvetica;fontColor=default;" parent="1" vertex="1">
          <mxGeometry x="487.99" y="1070" width="46.87" height="30" as="geometry" />
        </mxCell>
        <mxCell id="B_zJhtSemFq64WG5Uvhs-14" style="edgeStyle=orthogonalEdgeStyle;shape=connector;curved=1;rounded=1;orthogonalLoop=1;jettySize=auto;html=1;labelBackgroundColor=default;strokeColor=default;align=center;verticalAlign=middle;fontFamily=Helvetica;fontSize=11;fontColor=default;endArrow=classic;" parent="1" edge="1">
          <mxGeometry relative="1" as="geometry">
            <mxPoint x="451.99999999999994" y="1165" as="targetPoint" />
            <mxPoint x="451.99999999999994" y="1105" as="sourcePoint" />
          </mxGeometry>
        </mxCell>
        <mxCell id="B_zJhtSemFq64WG5Uvhs-15" value="" style="ellipse;whiteSpace=wrap;html=1;aspect=fixed;" parent="1" vertex="1">
          <mxGeometry x="431.99999999999994" y="1165" width="40" height="40" as="geometry" />
        </mxCell>
        <mxCell id="B_zJhtSemFq64WG5Uvhs-16" value="&lt;font style=&quot;font-size: 10px;&quot;&gt;IDIGIT&lt;/font&gt;" style="ellipse;whiteSpace=wrap;html=1;aspect=fixed;" parent="1" vertex="1">
          <mxGeometry x="436.99999999999994" y="1170" width="30" height="30" as="geometry" />
        </mxCell>
        <mxCell id="B_zJhtSemFq64WG5Uvhs-17" value="&lt;font style=&quot;font-size: 13px;&quot;&gt;Return (INUMBER, pointer)&lt;/font&gt;" style="text;html=1;strokeColor=none;fillColor=none;align=center;verticalAlign=middle;whiteSpace=wrap;rounded=0;fontSize=13;" parent="1" vertex="1">
          <mxGeometry x="410.49" y="1200" width="201.87" height="45" as="geometry" />
        </mxCell>
        <mxCell id="B_zJhtSemFq64WG5Uvhs-18" value="&lt;font style=&quot;font-size: 30px;&quot;&gt;*&lt;/font&gt;" style="text;html=1;strokeColor=none;fillColor=none;align=center;verticalAlign=middle;whiteSpace=wrap;rounded=0;" parent="1" vertex="1">
          <mxGeometry x="457.99999999999994" y="1165" width="45" height="20" as="geometry" />
        </mxCell>
        <mxCell id="B_zJhtSemFq64WG5Uvhs-19" value="other" style="text;html=1;strokeColor=none;fillColor=none;align=center;verticalAlign=middle;whiteSpace=wrap;rounded=0;fontSize=15;" parent="1" vertex="1">
          <mxGeometry x="457.99999999999994" y="1125" width="45" height="20" as="geometry" />
        </mxCell>
        <mxCell id="B_zJhtSemFq64WG5Uvhs-20" value="&lt;font style=&quot;font-size: 13px;&quot;&gt;Return (ERR)&lt;/font&gt;" style="text;html=1;strokeColor=none;fillColor=none;align=center;verticalAlign=middle;whiteSpace=wrap;rounded=0;fontSize=13;" parent="1" vertex="1">
          <mxGeometry x="208.87" y="1210" width="87.5" height="30" as="geometry" />
        </mxCell>
        <mxCell id="B_zJhtSemFq64WG5Uvhs-23" value="&lt;b&gt;&lt;i&gt;FNUMBER&lt;/i&gt;&lt;/b&gt;" style="text;html=1;strokeColor=none;fillColor=none;align=center;verticalAlign=middle;whiteSpace=wrap;rounded=0;fontSize=15;fontFamily=Helvetica;fontColor=default;" parent="1" vertex="1">
          <mxGeometry x="90.25" y="1070" width="60" height="30" as="geometry" />
        </mxCell>
        <mxCell id="B_zJhtSemFq64WG5Uvhs-26" value="&lt;font style=&quot;font-size: 30px;&quot;&gt;.&lt;/font&gt;" style="text;html=1;strokeColor=none;fillColor=none;align=center;verticalAlign=middle;whiteSpace=wrap;rounded=0;" parent="1" vertex="1">
          <mxGeometry x="459.38" y="990" width="21.87" height="20" as="geometry" />
        </mxCell>
        <mxCell id="B_zJhtSemFq64WG5Uvhs-32" style="edgeStyle=orthogonalEdgeStyle;rounded=0;orthogonalLoop=1;jettySize=auto;html=1;entryX=1;entryY=0.5;entryDx=0;entryDy=0;" parent="1" source="B_zJhtSemFq64WG5Uvhs-28" target="B_zJhtSemFq64WG5Uvhs-31" edge="1">
          <mxGeometry relative="1" as="geometry" />
        </mxCell>
        <mxCell id="B_zJhtSemFq64WG5Uvhs-34" style="edgeStyle=orthogonalEdgeStyle;rounded=0;orthogonalLoop=1;jettySize=auto;html=1;" parent="1" source="B_zJhtSemFq64WG5Uvhs-28" edge="1">
          <mxGeometry relative="1" as="geometry">
            <mxPoint x="558.41" y="939" as="targetPoint" />
          </mxGeometry>
        </mxCell>
        <mxCell id="B_zJhtSemFq64WG5Uvhs-28" value="14" style="ellipse;whiteSpace=wrap;html=1;aspect=fixed;" parent="1" vertex="1">
          <mxGeometry x="431.15999999999997" y="919" width="40" height="40" as="geometry" />
        </mxCell>
        <mxCell id="B_zJhtSemFq64WG5Uvhs-31" value="15" style="ellipse;whiteSpace=wrap;html=1;aspect=fixed;" parent="1" vertex="1">
          <mxGeometry x="302.40999999999997" y="919" width="40" height="40" as="geometry" />
        </mxCell>
        <mxCell id="B_zJhtSemFq64WG5Uvhs-33" value="digit" style="text;html=1;strokeColor=none;fillColor=none;align=center;verticalAlign=middle;whiteSpace=wrap;rounded=0;fontSize=15;fontFamily=Helvetica;fontColor=default;" parent="1" vertex="1">
          <mxGeometry x="354.91" y="909" width="64" height="30" as="geometry" />
        </mxCell>
        <mxCell id="B_zJhtSemFq64WG5Uvhs-37" value="" style="ellipse;whiteSpace=wrap;html=1;aspect=fixed;" parent="1" vertex="1">
          <mxGeometry x="559.66" y="919" width="40" height="40" as="geometry" />
        </mxCell>
        <mxCell id="B_zJhtSemFq64WG5Uvhs-38" value="ERR" style="ellipse;whiteSpace=wrap;html=1;aspect=fixed;" parent="1" vertex="1">
          <mxGeometry x="564.66" y="924" width="30" height="30" as="geometry" />
        </mxCell>
        <mxCell id="B_zJhtSemFq64WG5Uvhs-39" value="&lt;font style=&quot;font-size: 13px;&quot;&gt;Return (ERR)&lt;/font&gt;" style="text;html=1;strokeColor=none;fillColor=none;align=center;verticalAlign=middle;whiteSpace=wrap;rounded=0;fontSize=13;" parent="1" vertex="1">
          <mxGeometry x="534.66" y="964" width="87.5" height="30" as="geometry" />
        </mxCell>
        <mxCell id="B_zJhtSemFq64WG5Uvhs-40" value="other" style="text;html=1;strokeColor=none;fillColor=none;align=center;verticalAlign=middle;whiteSpace=wrap;rounded=0;fontSize=15;" parent="1" vertex="1">
          <mxGeometry x="492.91" y="914" width="45" height="20" as="geometry" />
        </mxCell>
        <mxCell id="B_zJhtSemFq64WG5Uvhs-41" value="" style="ellipse;whiteSpace=wrap;html=1;aspect=fixed;" parent="1" vertex="1">
          <mxGeometry x="137.41000000000003" y="919" width="50" height="50" as="geometry" />
        </mxCell>
        <mxCell id="B_zJhtSemFq64WG5Uvhs-42" value="&lt;span style=&quot;font-size: 10px;&quot;&gt;FNUMBER&lt;/span&gt;" style="ellipse;whiteSpace=wrap;html=1;aspect=fixed;" parent="1" vertex="1">
          <mxGeometry x="142.41000000000003" y="924" width="40" height="40" as="geometry" />
        </mxCell>
        <mxCell id="B_zJhtSemFq64WG5Uvhs-43" value="&lt;font style=&quot;font-size: 13px;&quot;&gt;Return (FNUMBER, pointer)&lt;/font&gt;" style="text;html=1;strokeColor=none;fillColor=none;align=center;verticalAlign=middle;whiteSpace=wrap;rounded=0;fontSize=13;" parent="1" vertex="1">
          <mxGeometry x="74.61" y="879" width="171.87" height="20" as="geometry" />
        </mxCell>
        <mxCell id="B_zJhtSemFq64WG5Uvhs-44" value="&lt;font style=&quot;font-size: 30px;&quot;&gt;*&lt;/font&gt;" style="text;html=1;strokeColor=none;fillColor=none;align=center;verticalAlign=middle;whiteSpace=wrap;rounded=0;" parent="1" vertex="1">
          <mxGeometry x="163.18" y="914" width="28.18" height="10" as="geometry" />
        </mxCell>
        <mxCell id="B_zJhtSemFq64WG5Uvhs-46" value="other" style="text;html=1;strokeColor=none;fillColor=none;align=center;verticalAlign=middle;whiteSpace=wrap;rounded=0;fontSize=15;" parent="1" vertex="1">
          <mxGeometry x="214.78000000000003" y="914" width="45" height="20" as="geometry" />
        </mxCell>
        <mxCell id="B_zJhtSemFq64WG5Uvhs-58" style="edgeStyle=orthogonalEdgeStyle;shape=connector;curved=1;rounded=1;orthogonalLoop=1;jettySize=auto;html=1;labelBackgroundColor=default;strokeColor=default;align=center;verticalAlign=middle;fontFamily=Helvetica;fontSize=11;fontColor=default;endArrow=classic;exitX=0;exitY=0;exitDx=0;exitDy=0;entryX=1;entryY=0;entryDx=0;entryDy=0;" parent="1" source="B_zJhtSemFq64WG5Uvhs-31" target="B_zJhtSemFq64WG5Uvhs-31" edge="1">
          <mxGeometry relative="1" as="geometry">
            <mxPoint x="293.66" y="889" as="sourcePoint" />
            <mxPoint x="293.66" y="909" as="targetPoint" />
            <Array as="points">
              <mxPoint x="308.41" y="899" />
              <mxPoint x="336.41" y="899" />
            </Array>
          </mxGeometry>
        </mxCell>
        <mxCell id="B_zJhtSemFq64WG5Uvhs-59" value="digit" style="text;html=1;strokeColor=none;fillColor=none;align=center;verticalAlign=middle;whiteSpace=wrap;rounded=0;fontSize=15;fontFamily=Helvetica;fontColor=default;" parent="1" vertex="1">
          <mxGeometry x="290.91" y="869" width="64" height="30" as="geometry" />
        </mxCell>
        <mxCell id="B_zJhtSemFq64WG5Uvhs-109" style="edgeStyle=orthogonalEdgeStyle;shape=connector;curved=1;rounded=1;orthogonalLoop=1;jettySize=auto;html=1;entryX=0.961;entryY=0.341;entryDx=0;entryDy=0;entryPerimeter=0;labelBackgroundColor=default;strokeColor=default;align=center;verticalAlign=middle;fontFamily=Helvetica;fontSize=11;fontColor=default;endArrow=classic;" parent="1" source="B_zJhtSemFq64WG5Uvhs-31" target="B_zJhtSemFq64WG5Uvhs-41" edge="1">
          <mxGeometry relative="1" as="geometry">
            <Array as="points">
              <mxPoint x="269.54" y="936" />
              <mxPoint x="269.54" y="936" />
            </Array>
          </mxGeometry>
        </mxCell>
      </root>
    </mxGraphModel>
  </diagram>
</mxfile>
